<svg width="200" height="64" viewBox="0 0 200 64" fill="none" xmlns="http://www.w3.org/2000/svg">
<rect x="0.5" y="0.5" width="199" height="63" rx="31.5" stroke="#665F55"/>
<path d="M46.7073 32.6307C46.6704 28.6324 50.065 26.6872 50.2203 26.5966C48.2977 23.8637 45.3178 23.4903 44.2707 23.4605C41.7679 23.2037 39.3403 24.9206 38.0654 24.9206C36.765 24.9206 34.8017 23.4853 32.6858 23.5275C29.9629 23.5684 27.4157 25.1055 26.0186 27.4923C23.1354 32.359 25.2857 39.5108 28.048 43.4446C29.4298 45.3712 31.0444 47.5223 33.1578 47.4466C35.2254 47.3635 35.9978 46.1614 38.4929 46.1614C40.9651 46.1614 41.6903 47.4466 43.8457 47.3983C46.0647 47.3635 47.4618 45.463 48.7952 43.519C50.392 41.3108 51.0333 39.1362 51.0588 39.0245C51.0066 39.0071 46.7493 37.4229 46.7073 32.6307Z" fill="#403F3D"/>
<path d="M42.6357 20.8727C43.7477 19.5168 44.5086 17.672 44.2974 15.8C42.6879 15.8695 40.675 16.8855 39.5159 18.2117C38.4903 19.3803 37.5742 21.2957 37.8109 23.097C39.6189 23.2285 41.4753 22.2075 42.6357 20.8727Z" fill="#403F3D"/>
<path d="M65.748 23H64.3417L66.9021 15.7273H68.5285L71.0924 23H69.6862L67.7437 17.2188H67.6869L65.748 23ZM65.7941 20.1484H69.6294V21.2067H65.7941V20.1484ZM76.1821 17.5455L74.2396 23H72.8192L70.8767 17.5455H72.2474L73.501 21.5973H73.5578L74.8149 17.5455H76.1821ZM78.485 23.1101C78.1394 23.1101 77.828 23.0485 77.551 22.9254C77.2764 22.8 77.0586 22.6153 76.8976 22.3714C76.739 22.1276 76.6597 21.8269 76.6597 21.4695C76.6597 21.1617 76.7165 20.9072 76.8302 20.706C76.9438 20.5047 77.0989 20.3438 77.2954 20.223C77.4919 20.1023 77.7132 20.0111 77.9594 19.9496C78.208 19.8857 78.4649 19.8395 78.73 19.8111C79.0496 19.7779 79.3089 19.7483 79.5077 19.7223C79.7066 19.6939 79.851 19.6513 79.941 19.5945C80.0333 19.5353 80.0795 19.4441 80.0795 19.321V19.2997C80.0795 19.0322 80.0001 18.825 79.8415 18.6783C79.6829 18.5315 79.4545 18.4581 79.1562 18.4581C78.8413 18.4581 78.5915 18.5268 78.4069 18.6641C78.2246 18.8014 78.1015 18.9635 78.0376 19.1506L76.8373 18.9801C76.932 18.6487 77.0882 18.3717 77.306 18.1491C77.5238 17.9242 77.7902 17.7562 78.105 17.6449C78.4199 17.5312 78.7679 17.4744 79.1491 17.4744C79.4118 17.4744 79.6734 17.5052 79.9339 17.5668C80.1943 17.6283 80.4322 17.7301 80.6476 17.8722C80.8631 18.0118 81.0359 18.2024 81.1661 18.4439C81.2987 18.6854 81.365 18.9872 81.365 19.3494V23H80.1292V22.2507H80.0866C80.0084 22.4022 79.8983 22.5443 79.7563 22.6768C79.6166 22.8071 79.4403 22.9124 79.2272 22.9929C79.0165 23.071 78.7691 23.1101 78.485 23.1101ZM78.8188 22.1655C79.0769 22.1655 79.3006 22.1146 79.49 22.0128C79.6794 21.9086 79.825 21.7713 79.9268 21.6009C80.0309 21.4304 80.083 21.2446 80.083 21.0433V20.4006C80.0428 20.4337 79.9741 20.4645 79.877 20.4929C79.7823 20.5213 79.6758 20.5462 79.5574 20.5675C79.4391 20.5888 79.3219 20.6077 79.2059 20.6243C79.0899 20.6409 78.9893 20.6551 78.904 20.6669C78.7123 20.6929 78.5406 20.7356 78.3891 20.7947C78.2376 20.8539 78.118 20.9368 78.0305 21.0433C77.9429 21.1475 77.8991 21.2824 77.8991 21.4482C77.8991 21.6849 77.9855 21.8636 78.1583 21.9844C78.3311 22.1051 78.5513 22.1655 78.8188 22.1655ZM82.6576 23V17.5455H83.9431V23H82.6576ZM83.3039 16.7713C83.1003 16.7713 82.9251 16.7038 82.7783 16.5689C82.6315 16.4316 82.5581 16.267 82.5581 16.0753C82.5581 15.8812 82.6315 15.7166 82.7783 15.5817C82.9251 15.4444 83.1003 15.3757 83.3039 15.3757C83.5099 15.3757 83.685 15.4444 83.8295 15.5817C83.9762 15.7166 84.0496 15.8812 84.0496 16.0753C84.0496 16.267 83.9762 16.4316 83.8295 16.5689C83.685 16.7038 83.5099 16.7713 83.3039 16.7713ZM86.5505 15.7273V23H85.265V15.7273H86.5505ZM89.442 23.1101C89.0964 23.1101 88.7851 23.0485 88.5081 22.9254C88.2335 22.8 88.0157 22.6153 87.8547 22.3714C87.6961 22.1276 87.6167 21.8269 87.6167 21.4695C87.6167 21.1617 87.6736 20.9072 87.7872 20.706C87.9008 20.5047 88.0559 20.3438 88.2524 20.223C88.4489 20.1023 88.6702 20.0111 88.9165 19.9496C89.165 19.8857 89.4219 19.8395 89.6871 19.8111C90.0067 19.7779 90.2659 19.7483 90.4648 19.7223C90.6636 19.6939 90.808 19.6513 90.898 19.5945C90.9903 19.5353 91.0365 19.4441 91.0365 19.321V19.2997C91.0365 19.0322 90.9572 18.825 90.7986 18.6783C90.6399 18.5315 90.4115 18.4581 90.1132 18.4581C89.7983 18.4581 89.5486 18.5268 89.3639 18.6641C89.1816 18.8014 89.0585 18.9635 88.9946 19.1506L87.7943 18.9801C87.889 18.6487 88.0452 18.3717 88.2631 18.1491C88.4809 17.9242 88.7472 17.7562 89.0621 17.6449C89.3769 17.5312 89.7249 17.4744 90.1061 17.4744C90.3689 17.4744 90.6305 17.5052 90.8909 17.5668C91.1513 17.6283 91.3892 17.7301 91.6047 17.8722C91.8201 18.0118 91.9929 18.2024 92.1231 18.4439C92.2557 18.6854 92.322 18.9872 92.322 19.3494V23H91.0862V22.2507H91.0436C90.9655 22.4022 90.8554 22.5443 90.7133 22.6768C90.5737 22.8071 90.3973 22.9124 90.1842 22.9929C89.9735 23.071 89.7261 23.1101 89.442 23.1101ZM89.7758 22.1655C90.0339 22.1655 90.2576 22.1146 90.447 22.0128C90.6364 21.9086 90.782 21.7713 90.8838 21.6009C90.988 21.4304 91.04 21.2446 91.04 21.0433V20.4006C90.9998 20.4337 90.9311 20.4645 90.8341 20.4929C90.7394 20.5213 90.6328 20.5462 90.5145 20.5675C90.3961 20.5888 90.2789 20.6077 90.1629 20.6243C90.0469 20.6409 89.9463 20.6551 89.8611 20.6669C89.6693 20.6929 89.4977 20.7356 89.3461 20.7947C89.1946 20.8539 89.0751 20.9368 88.9875 21.0433C88.8999 21.1475 88.8561 21.2824 88.8561 21.4482C88.8561 21.6849 88.9425 21.8636 89.1153 21.9844C89.2881 22.1051 89.5083 22.1655 89.7758 22.1655ZM93.6714 23V15.7273H94.9569V18.4474H95.0102C95.0765 18.3149 95.17 18.174 95.2907 18.0249C95.4115 17.8733 95.5748 17.7443 95.7808 17.6378C95.9868 17.5289 96.2496 17.4744 96.5692 17.4744C96.9906 17.4744 97.3705 17.5821 97.7091 17.7976C98.05 18.0107 98.3199 18.3267 98.5187 18.7457C98.72 19.1624 98.8206 19.6738 98.8206 20.2798C98.8206 20.8788 98.7223 21.3878 98.5258 21.8068C98.3293 22.2259 98.0618 22.5455 97.7233 22.7656C97.3847 22.9858 97.0012 23.0959 96.5727 23.0959C96.2602 23.0959 96.001 23.0438 95.795 22.9396C95.589 22.8355 95.4233 22.71 95.2979 22.5632C95.1747 22.4141 95.0789 22.2732 95.0102 22.1406H94.9356V23H93.6714ZM94.9321 20.2727C94.9321 20.6255 94.9818 20.9344 95.0812 21.1996C95.183 21.4647 95.3286 21.6719 95.518 21.821C95.7098 21.9678 95.9418 22.0412 96.214 22.0412C96.4981 22.0412 96.7361 21.9654 96.9278 21.8139C97.1196 21.66 97.264 21.4505 97.3611 21.1854C97.4605 20.9179 97.5102 20.6136 97.5102 20.2727C97.5102 19.9342 97.4617 19.6335 97.3646 19.3707C97.2675 19.108 97.1231 18.902 96.9314 18.7528C96.7396 18.6037 96.5005 18.5291 96.214 18.5291C95.9394 18.5291 95.7062 18.6013 95.5145 18.7457C95.3227 18.8902 95.1771 19.0926 95.0777 19.353C94.9806 19.6134 94.9321 19.92 94.9321 20.2727ZM101.199 15.7273V23H99.9134V15.7273H101.199ZM104.936 23.1065C104.389 23.1065 103.916 22.9929 103.519 22.7656C103.123 22.536 102.819 22.2116 102.606 21.7926C102.393 21.3712 102.286 20.8752 102.286 20.3047C102.286 19.7436 102.393 19.2512 102.606 18.8274C102.822 18.4013 103.122 18.0698 103.508 17.8331C103.894 17.594 104.347 17.4744 104.868 17.4744C105.204 17.4744 105.522 17.5289 105.82 17.6378C106.121 17.7443 106.386 17.91 106.615 18.1349C106.847 18.3598 107.03 18.6463 107.162 18.9943C107.295 19.34 107.361 19.7519 107.361 20.2301V20.6243H102.89V19.7578H106.129C106.126 19.5116 106.073 19.2926 105.969 19.1009C105.865 18.9067 105.719 18.754 105.532 18.6428C105.348 18.5315 105.132 18.4759 104.886 18.4759C104.623 18.4759 104.392 18.5398 104.193 18.6676C103.995 18.7931 103.84 18.9588 103.728 19.1648C103.619 19.3684 103.564 19.5921 103.561 19.8359V20.5923C103.561 20.9096 103.619 21.1818 103.735 21.4091C103.851 21.634 104.014 21.8068 104.222 21.9276C104.43 22.0459 104.674 22.1051 104.953 22.1051C105.14 22.1051 105.31 22.0791 105.461 22.027C105.613 21.9725 105.744 21.8932 105.855 21.7891C105.967 21.6849 106.051 21.5559 106.108 21.402L107.308 21.5369C107.232 21.8542 107.088 22.1312 106.875 22.3679C106.664 22.6023 106.394 22.7846 106.065 22.9148C105.736 23.0426 105.359 23.1065 104.936 23.1065ZM113.308 23.1065C112.776 23.1065 112.314 22.9893 111.923 22.755C111.533 22.5206 111.23 22.1927 111.014 21.7713C110.801 21.3499 110.695 20.8575 110.695 20.294C110.695 19.7306 110.801 19.237 111.014 18.8132C111.23 18.3894 111.533 18.0604 111.923 17.826C112.314 17.5916 112.776 17.4744 113.308 17.4744C113.841 17.4744 114.303 17.5916 114.693 17.826C115.084 18.0604 115.386 18.3894 115.599 18.8132C115.814 19.237 115.922 19.7306 115.922 20.294C115.922 20.8575 115.814 21.3499 115.599 21.7713C115.386 22.1927 115.084 22.5206 114.693 22.755C114.303 22.9893 113.841 23.1065 113.308 23.1065ZM113.315 22.0767C113.604 22.0767 113.846 21.9974 114.04 21.8388C114.234 21.6778 114.378 21.4624 114.473 21.1925C114.57 20.9226 114.619 20.6219 114.619 20.2905C114.619 19.9567 114.57 19.6548 114.473 19.3849C114.378 19.1127 114.234 18.8961 114.04 18.7351C113.846 18.5741 113.604 18.4936 113.315 18.4936C113.02 18.4936 112.773 18.5741 112.577 18.7351C112.383 18.8961 112.237 19.1127 112.14 19.3849C112.045 19.6548 111.998 19.9567 111.998 20.2905C111.998 20.6219 112.045 20.9226 112.14 21.1925C112.237 21.4624 112.383 21.6778 112.577 21.8388C112.773 21.9974 113.02 22.0767 113.315 22.0767ZM118.299 19.804V23H117.013V17.5455H118.242V18.4723H118.306C118.431 18.1669 118.631 17.9242 118.906 17.7443C119.183 17.5644 119.525 17.4744 119.932 17.4744C120.309 17.4744 120.636 17.5549 120.916 17.7159C121.197 17.8769 121.415 18.1101 121.569 18.4155C121.725 18.7209 121.802 19.0914 121.8 19.527V23H120.514V19.7259C120.514 19.3613 120.42 19.076 120.23 18.87C120.043 18.6641 119.784 18.5611 119.453 18.5611C119.228 18.5611 119.028 18.6108 118.853 18.7102C118.68 18.8073 118.544 18.9482 118.444 19.1328C118.347 19.3175 118.299 19.5412 118.299 19.804ZM128.311 17.5455V18.5398H125.175V17.5455H128.311ZM125.949 16.2386H127.235V21.3594C127.235 21.5322 127.261 21.6648 127.313 21.7571C127.368 21.8471 127.439 21.9086 127.526 21.9418C127.614 21.9749 127.711 21.9915 127.817 21.9915C127.898 21.9915 127.971 21.9856 128.038 21.9737C128.106 21.9619 128.158 21.9512 128.194 21.9418L128.41 22.9467C128.342 22.9704 128.244 22.9964 128.116 23.0249C127.99 23.0533 127.836 23.0698 127.654 23.0746C127.332 23.084 127.042 23.0355 126.784 22.929C126.526 22.8201 126.321 22.652 126.17 22.4247C126.021 22.1974 125.947 21.9134 125.949 21.5724V16.2386ZM130.789 19.804V23H129.503V15.7273H130.76V18.4723H130.824C130.952 18.1645 131.15 17.9219 131.417 17.7443C131.687 17.5644 132.031 17.4744 132.447 17.4744C132.826 17.4744 133.156 17.5537 133.438 17.7124C133.72 17.871 133.937 18.103 134.091 18.4084C134.248 18.7138 134.326 19.0866 134.326 19.527V23H133.04V19.7259C133.04 19.3589 132.946 19.0736 132.756 18.87C132.569 18.6641 132.306 18.5611 131.968 18.5611C131.741 18.5611 131.537 18.6108 131.357 18.7102C131.179 18.8073 131.04 18.9482 130.938 19.1328C130.839 19.3175 130.789 19.5412 130.789 19.804ZM138.051 23.1065C137.504 23.1065 137.032 22.9929 136.634 22.7656C136.239 22.536 135.934 22.2116 135.721 21.7926C135.508 21.3712 135.402 20.8752 135.402 20.3047C135.402 19.7436 135.508 19.2512 135.721 18.8274C135.937 18.4013 136.237 18.0698 136.623 17.8331C137.009 17.594 137.463 17.4744 137.983 17.4744C138.32 17.4744 138.637 17.5289 138.935 17.6378C139.236 17.7443 139.501 17.91 139.731 18.1349C139.963 18.3598 140.145 18.6463 140.277 18.9943C140.41 19.34 140.476 19.7519 140.476 20.2301V20.6243H136.005V19.7578H139.244C139.242 19.5116 139.188 19.2926 139.084 19.1009C138.98 18.9067 138.834 18.754 138.647 18.6428C138.463 18.5315 138.247 18.4759 138.001 18.4759C137.738 18.4759 137.508 18.5398 137.309 18.6676C137.11 18.7931 136.955 18.9588 136.843 19.1648C136.735 19.3684 136.679 19.5921 136.677 19.8359V20.5923C136.677 20.9096 136.735 21.1818 136.851 21.4091C136.967 21.634 137.129 21.8068 137.337 21.9276C137.545 22.0459 137.789 22.1051 138.069 22.1051C138.256 22.1051 138.425 22.0791 138.576 22.027C138.728 21.9725 138.859 21.8932 138.971 21.7891C139.082 21.6849 139.166 21.5559 139.223 21.402L140.423 21.5369C140.347 21.8542 140.203 22.1312 139.99 22.3679C139.779 22.6023 139.509 22.7846 139.18 22.9148C138.851 23.0426 138.475 23.1065 138.051 23.1065Z" fill="#403F3D"/>
<path d="M66.642 46H64.392L68.4886 34.3636H71.0909L75.1932 46H72.9432L69.8352 36.75H69.7443L66.642 46ZM66.7159 41.4375H72.8523V43.1307H66.7159V41.4375ZM76.6349 49.2727V37.2727H78.6577V38.7159H78.777C78.883 38.5038 79.0327 38.2784 79.2259 38.0398C79.419 37.7973 79.6804 37.5909 80.0099 37.4205C80.3395 37.2462 80.7599 37.1591 81.2713 37.1591C81.9455 37.1591 82.5535 37.3314 83.0952 37.6761C83.6406 38.017 84.0724 38.5227 84.3906 39.1932C84.7126 39.8598 84.8736 40.678 84.8736 41.6477C84.8736 42.6061 84.7164 43.4205 84.402 44.0909C84.0876 44.7614 83.6596 45.2727 83.1179 45.625C82.5762 45.9773 81.9626 46.1534 81.277 46.1534C80.777 46.1534 80.3622 46.0701 80.0327 45.9034C79.7031 45.7367 79.438 45.536 79.2372 45.3011C79.0402 45.0625 78.8868 44.8371 78.777 44.625H78.6918V49.2727H76.6349ZM78.652 41.6364C78.652 42.2008 78.7315 42.6951 78.8906 43.1193C79.0535 43.5436 79.2865 43.875 79.5895 44.1136C79.8963 44.3485 80.2675 44.4659 80.7031 44.4659C81.1577 44.4659 81.5384 44.3447 81.8452 44.1023C82.152 43.8561 82.383 43.5208 82.5384 43.0966C82.6974 42.6686 82.777 42.1818 82.777 41.6364C82.777 41.0947 82.6993 40.6136 82.544 40.1932C82.3887 39.7727 82.1577 39.4432 81.8509 39.2045C81.544 38.9659 81.1615 38.8466 80.7031 38.8466C80.2637 38.8466 79.8906 38.9621 79.5838 39.1932C79.277 39.4242 79.044 39.7481 78.8849 40.1648C78.7296 40.5814 78.652 41.072 78.652 41.6364ZM86.6349 49.2727V37.2727H88.6577V38.7159H88.777C88.883 38.5038 89.0327 38.2784 89.2259 38.0398C89.419 37.7973 89.6804 37.5909 90.0099 37.4205C90.3395 37.2462 90.7599 37.1591 91.2713 37.1591C91.9455 37.1591 92.5535 37.3314 93.0952 37.6761C93.6406 38.017 94.0724 38.5227 94.3906 39.1932C94.7126 39.8598 94.8736 40.678 94.8736 41.6477C94.8736 42.6061 94.7164 43.4205 94.402 44.0909C94.0876 44.7614 93.6596 45.2727 93.1179 45.625C92.5762 45.9773 91.9626 46.1534 91.277 46.1534C90.777 46.1534 90.3622 46.0701 90.0327 45.9034C89.7031 45.7367 89.438 45.536 89.2372 45.3011C89.0402 45.0625 88.8868 44.8371 88.777 44.625H88.6918V49.2727H86.6349ZM88.652 41.6364C88.652 42.2008 88.7315 42.6951 88.8906 43.1193C89.0535 43.5436 89.2865 43.875 89.5895 44.1136C89.8963 44.3485 90.2675 44.4659 90.7031 44.4659C91.1577 44.4659 91.5384 44.3447 91.8452 44.1023C92.152 43.8561 92.383 43.5208 92.5384 43.0966C92.6974 42.6686 92.777 42.1818 92.777 41.6364C92.777 41.0947 92.6993 40.6136 92.544 40.1932C92.3887 39.7727 92.1577 39.4432 91.8509 39.2045C91.544 38.9659 91.1615 38.8466 90.7031 38.8466C90.2637 38.8466 89.8906 38.9621 89.5838 39.1932C89.277 39.4242 89.044 39.7481 88.8849 40.1648C88.7296 40.5814 88.652 41.072 88.652 41.6364ZM107.018 37.5625C106.965 37.0663 106.742 36.6799 106.348 36.4034C105.958 36.1269 105.45 35.9886 104.825 35.9886C104.386 35.9886 104.009 36.0549 103.695 36.1875C103.38 36.3201 103.14 36.5 102.973 36.7273C102.806 36.9545 102.721 37.214 102.717 37.5057C102.717 37.7481 102.772 37.9583 102.882 38.1364C102.996 38.3144 103.149 38.4659 103.342 38.5909C103.536 38.7121 103.75 38.8144 103.984 38.8977C104.219 38.9811 104.456 39.0511 104.695 39.108L105.786 39.3807C106.225 39.483 106.647 39.6212 107.053 39.7955C107.462 39.9697 107.827 40.1894 108.149 40.4545C108.475 40.7197 108.732 41.0398 108.922 41.4148C109.111 41.7898 109.206 42.2292 109.206 42.733C109.206 43.4148 109.032 44.0152 108.683 44.5341C108.335 45.0492 107.831 45.4527 107.172 45.7443C106.517 46.0322 105.723 46.1761 104.791 46.1761C103.886 46.1761 103.1 46.036 102.433 45.7557C101.77 45.4754 101.251 45.0663 100.876 44.5284C100.505 43.9905 100.304 43.3352 100.274 42.5625H102.348C102.378 42.9678 102.503 43.3049 102.723 43.5739C102.943 43.8428 103.229 44.0436 103.581 44.1761C103.937 44.3087 104.335 44.375 104.774 44.375C105.232 44.375 105.634 44.3068 105.979 44.1705C106.327 44.0303 106.6 43.8371 106.797 43.5909C106.994 43.3409 107.094 43.0492 107.098 42.7159C107.094 42.4129 107.005 42.1629 106.831 41.9659C106.657 41.7652 106.412 41.5985 106.098 41.4659C105.787 41.3295 105.424 41.2083 105.007 41.1023L103.683 40.7614C102.725 40.5152 101.967 40.142 101.411 39.642C100.857 39.1383 100.581 38.4697 100.581 37.6364C100.581 36.9508 100.767 36.3504 101.138 35.8352C101.513 35.3201 102.022 34.9205 102.666 34.6364C103.31 34.3485 104.039 34.2045 104.854 34.2045C105.679 34.2045 106.403 34.3485 107.024 34.6364C107.649 34.9205 108.14 35.3163 108.496 35.8239C108.852 36.3277 109.036 36.9072 109.047 37.5625H107.018ZM115.352 37.2727V38.8636H110.335V37.2727H115.352ZM111.574 35.1818H113.631V43.375C113.631 43.6515 113.672 43.8636 113.756 44.0114C113.843 44.1553 113.956 44.2538 114.097 44.3068C114.237 44.3598 114.392 44.3864 114.562 44.3864C114.691 44.3864 114.809 44.3769 114.915 44.358C115.025 44.339 115.108 44.322 115.165 44.3068L115.511 45.9148C115.402 45.9527 115.244 45.9943 115.04 46.0398C114.839 46.0852 114.593 46.1117 114.301 46.1193C113.786 46.1345 113.322 46.0568 112.909 45.8864C112.496 45.7121 112.169 45.4432 111.926 45.0795C111.688 44.7159 111.57 44.2614 111.574 43.7159V35.1818ZM120.786 46.1705C119.933 46.1705 119.195 45.983 118.57 45.608C117.945 45.233 117.46 44.7083 117.115 44.0341C116.774 43.3598 116.604 42.572 116.604 41.6705C116.604 40.7689 116.774 39.9792 117.115 39.3011C117.46 38.6231 117.945 38.0966 118.57 37.7216C119.195 37.3466 119.933 37.1591 120.786 37.1591C121.638 37.1591 122.376 37.3466 123.001 37.7216C123.626 38.0966 124.109 38.6231 124.45 39.3011C124.795 39.9792 124.967 40.7689 124.967 41.6705C124.967 42.572 124.795 43.3598 124.45 44.0341C124.109 44.7083 123.626 45.233 123.001 45.608C122.376 45.983 121.638 46.1705 120.786 46.1705ZM120.797 44.5227C121.259 44.5227 121.645 44.3958 121.956 44.142C122.267 43.8845 122.498 43.5398 122.649 43.108C122.804 42.6761 122.882 42.1951 122.882 41.6648C122.882 41.1307 122.804 40.6477 122.649 40.2159C122.498 39.7803 122.267 39.4337 121.956 39.1761C121.645 38.9186 121.259 38.7898 120.797 38.7898C120.323 38.7898 119.929 38.9186 119.615 39.1761C119.304 39.4337 119.071 39.7803 118.916 40.2159C118.765 40.6477 118.689 41.1307 118.689 41.6648C118.689 42.1951 118.765 42.6761 118.916 43.108C119.071 43.5398 119.304 43.8845 119.615 44.142C119.929 44.3958 120.323 44.5227 120.797 44.5227ZM126.713 46V37.2727H128.707V38.7273H128.798C128.957 38.2235 129.23 37.8352 129.616 37.5625C130.007 37.286 130.452 37.1477 130.952 37.1477C131.065 37.1477 131.192 37.1534 131.332 37.1648C131.476 37.1723 131.596 37.1856 131.69 37.2045V39.0966C131.603 39.0663 131.465 39.0398 131.276 39.017C131.09 38.9905 130.91 38.9773 130.736 38.9773C130.361 38.9773 130.024 39.0587 129.724 39.2216C129.429 39.3807 129.196 39.6023 129.026 39.8864C128.855 40.1705 128.77 40.4981 128.77 40.8693V46H126.713ZM136.561 46.1705C135.686 46.1705 134.93 45.9886 134.294 45.625C133.661 45.2576 133.175 44.7386 132.834 44.0682C132.493 43.3939 132.322 42.6004 132.322 41.6875C132.322 40.7898 132.493 40.0019 132.834 39.3239C133.179 38.642 133.66 38.1117 134.277 37.733C134.894 37.3504 135.62 37.1591 136.453 37.1591C136.991 37.1591 137.499 37.2462 137.976 37.4205C138.457 37.5909 138.881 37.8561 139.249 38.2159C139.62 38.5758 139.911 39.0341 140.124 39.5909C140.336 40.1439 140.442 40.803 140.442 41.5682V42.1989H133.288V40.8125H138.47C138.466 40.4186 138.381 40.0682 138.214 39.7614C138.048 39.4508 137.815 39.2064 137.516 39.0284C137.22 38.8504 136.875 38.7614 136.482 38.7614C136.061 38.7614 135.692 38.8636 135.374 39.0682C135.055 39.2689 134.807 39.5341 134.629 39.8636C134.455 40.1894 134.366 40.5473 134.362 40.9375V42.1477C134.362 42.6553 134.455 43.0909 134.641 43.4545C134.826 43.8144 135.086 44.0909 135.419 44.2841C135.752 44.4735 136.143 44.5682 136.589 44.5682C136.889 44.5682 137.16 44.5265 137.402 44.4432C137.644 44.3561 137.855 44.2292 138.033 44.0625C138.211 43.8958 138.345 43.6894 138.436 43.4432L140.357 43.6591C140.235 44.1667 140.004 44.6098 139.663 44.9886C139.326 45.3636 138.894 45.6553 138.368 45.8636C137.841 46.0682 137.239 46.1705 136.561 46.1705Z" fill="#403F3D"/>
</svg>
