<svg width="41" height="40" viewBox="0 0 41 40" fill="none" xmlns="http://www.w3.org/2000/svg">
<path d="M28.8335 18.9333V25C28.8335 30.5228 24.3563 35 18.8335 35H15.5002C9.97731 35 5.50016 30.5228 5.50016 25V18.9333C5.50016 18.602 5.76879 18.3333 6.10016 18.3333H28.2335C28.5649 18.3333 28.8335 18.602 28.8335 18.9333Z" stroke="#403F3D" stroke-width="2" stroke-linecap="round" stroke-linejoin="round"/>
<path d="M20.5002 15C20.5002 13.3334 21.6906 11.6667 24.0716 11.6667C24.5921 11.6667 25.2139 11.6667 25.8335 11.6667C27.4904 11.6667 28.8335 10.3236 28.8335 8.66671V5.83337" stroke="#403F3D" stroke-width="2" stroke-linecap="round" stroke-linejoin="round"/>
<path d="M13.8332 15V12.1667C13.8332 10.5098 15.1763 9.16667 16.8332 9.16667H20.1665C21.2711 9.16667 22.1665 8.27124 22.1665 7.16667V5" stroke="#403F3D" stroke-width="2" stroke-linecap="round" stroke-linejoin="round"/>
<path d="M27.1665 18.3334H31.3332C33.6344 18.3334 35.4998 20.1989 35.4998 22.5C35.4998 24.8012 33.6344 26.6667 31.3332 26.6667H28.8332" stroke="#403F3D" stroke-width="2" stroke-linecap="round" stroke-linejoin="round"/>
</svg>
