<svg width="20" height="20" viewBox="0 0 20 20" fill="none" xmlns="http://www.w3.org/2000/svg">
<path d="M14.1665 9.76667V11.6667C14.1665 14.8883 11.5548 17.5 8.33317 17.5C5.11151 17.5 2.49984 14.8883 2.49984 11.6667V9.76667C2.49984 9.4353 2.76847 9.16667 3.09984 9.16667H13.5665C13.8979 9.16667 14.1665 9.4353 14.1665 9.76667Z" stroke="#403F3D" stroke-width="1.5" stroke-linecap="round" stroke-linejoin="round"/>
<path d="M9.99984 7.49996C9.99984 6.66663 10.5951 5.83329 11.7856 5.83329V5.83329C13.1005 5.83329 14.1665 4.7673 14.1665 3.45234V2.91663" stroke="#403F3D" stroke-width="1.5" stroke-linecap="round" stroke-linejoin="round"/>
<path d="M6.66683 7.5V7.08333C6.66683 5.70262 7.78612 4.58333 9.16683 4.58333V4.58333C10.0873 4.58333 10.8335 3.83714 10.8335 2.91667V2.5" stroke="#403F3D" stroke-width="1.5" stroke-linecap="round" stroke-linejoin="round"/>
<path d="M13.3335 9.16663H15.4168C16.5674 9.16663 17.5002 10.0994 17.5002 11.25C17.5002 12.4006 16.5674 13.3333 15.4168 13.3333H14.1668" stroke="#403F3D" stroke-width="1.5" stroke-linecap="round" stroke-linejoin="round"/>
</svg>
