<svg width="30" height="30" viewBox="0 0 30 30" fill="none" xmlns="http://www.w3.org/2000/svg">
<rect width="30" height="30" rx="15" fill="#E1D4C9"/>
<path d="M17.7763 12.5625C17.7232 12.0663 17.4998 11.6799 17.1058 11.4034C16.7157 11.1269 16.2081 10.9886 15.5831 10.9886C15.1437 10.9886 14.7668 11.0549 14.4524 11.1875C14.138 11.3201 13.8975 11.5 13.7308 11.7273C13.5642 11.9545 13.4789 12.214 13.4751 12.5057C13.4751 12.7481 13.5301 12.9583 13.6399 13.1364C13.7536 13.3144 13.907 13.4659 14.1001 13.5909C14.2933 13.7121 14.5073 13.8144 14.7422 13.8977C14.977 13.9811 15.2138 14.0511 15.4524 14.108L16.5433 14.3807C16.9827 14.483 17.4051 14.6212 17.8104 14.7955C18.2195 14.9697 18.585 15.1894 18.907 15.4545C19.2327 15.7197 19.4903 16.0398 19.6797 16.4148C19.8691 16.7898 19.9638 17.2292 19.9638 17.733C19.9638 18.4148 19.7895 19.0152 19.4411 19.5341C19.0926 20.0492 18.5888 20.4527 17.9297 20.7443C17.2744 21.0322 16.4808 21.1761 15.549 21.1761C14.6437 21.1761 13.8577 21.036 13.1911 20.7557C12.5282 20.4754 12.0092 20.0663 11.6342 19.5284C11.263 18.9905 11.0623 18.3352 11.032 17.5625H13.1058C13.1361 17.9678 13.2611 18.3049 13.4808 18.5739C13.7005 18.8428 13.9865 19.0436 14.3388 19.1761C14.6948 19.3087 15.0926 19.375 15.532 19.375C15.9903 19.375 16.3918 19.3068 16.7365 19.1705C17.085 19.0303 17.3577 18.8371 17.5547 18.5909C17.7517 18.3409 17.852 18.0492 17.8558 17.7159C17.852 17.4129 17.763 17.1629 17.5888 16.9659C17.4145 16.7652 17.1702 16.5985 16.8558 16.4659C16.5452 16.3295 16.1816 16.2083 15.7649 16.1023L14.4411 15.7614C13.4827 15.5152 12.7251 15.142 12.1683 14.642C11.6153 14.1383 11.3388 13.4697 11.3388 12.6364C11.3388 11.9508 11.5244 11.3504 11.8956 10.8352C12.2706 10.3201 12.7801 9.92045 13.424 9.63636C14.0679 9.34848 14.7971 9.20455 15.6115 9.20455C16.4373 9.20455 17.1607 9.34848 17.782 9.63636C18.407 9.92045 18.8975 10.3163 19.2536 10.8239C19.6096 11.3277 19.7933 11.9072 19.8047 12.5625H17.7763Z" fill="#403F3D"/>
</svg>
