<svg width="182" height="28" viewBox="0 0 182 28" fill="none" xmlns="http://www.w3.org/2000/svg">
<path d="M16.6663 8.33335C16.6663 12.0153 9.99967 18.3334 9.99967 18.3334C9.99967 18.3334 3.33301 12.0153 3.33301 8.33335C3.33301 4.65146 6.31778 1.66669 9.99967 1.66669C13.6816 1.66669 16.6663 4.65146 16.6663 8.33335Z" stroke="#E1D4C9" stroke-width="1.5"/>
<path d="M10.0003 9.16667C10.4606 9.16667 10.8337 8.79357 10.8337 8.33333C10.8337 7.8731 10.4606 7.5 10.0003 7.5C9.54009 7.5 9.16699 7.8731 9.16699 8.33333C9.16699 8.79357 9.54009 9.16667 10.0003 9.16667Z" fill="#E1D4C9" stroke="#E1D4C9" stroke-width="1.5" stroke-linecap="round" stroke-linejoin="round"/>
<path d="M33.1705 18.1591C32.3258 18.1591 31.5758 18.017 30.9205 17.733C30.2689 17.4489 29.7576 17.0606 29.3864 16.5682C29.0189 16.072 28.8371 15.5095 28.8409 14.8807C28.8371 14.392 28.9432 13.9432 29.1591 13.5341C29.375 13.125 29.6667 12.7841 30.0341 12.5114C30.4053 12.2348 30.8182 12.0587 31.2727 11.983V11.9034C30.6742 11.7708 30.1894 11.4659 29.8182 10.9886C29.4508 10.5076 29.2689 9.95265 29.2727 9.32386C29.2689 8.72538 29.4356 8.19129 29.7727 7.72159C30.1098 7.25189 30.572 6.88258 31.1591 6.61364C31.7462 6.34091 32.4167 6.20455 33.1705 6.20455C33.9167 6.20455 34.5814 6.34091 35.1648 6.61364C35.7519 6.88258 36.214 7.25189 36.5511 7.72159C36.892 8.19129 37.0625 8.72538 37.0625 9.32386C37.0625 9.95265 36.875 10.5076 36.5 10.9886C36.1288 11.4659 35.6496 11.7708 35.0625 11.9034V11.983C35.517 12.0587 35.9261 12.2348 36.2898 12.5114C36.6572 12.7841 36.9489 13.125 37.1648 13.5341C37.3845 13.9432 37.4943 14.392 37.4943 14.8807C37.4943 15.5095 37.3087 16.072 36.9375 16.5682C36.5663 17.0606 36.0549 17.4489 35.4034 17.733C34.7557 18.017 34.0114 18.1591 33.1705 18.1591ZM33.1705 16.5341C33.6061 16.5341 33.9848 16.4602 34.3068 16.3125C34.6288 16.161 34.8788 15.9489 35.0568 15.6761C35.2348 15.4034 35.3258 15.089 35.3295 14.733C35.3258 14.3617 35.2292 14.0341 35.0398 13.75C34.8542 13.4621 34.5985 13.2367 34.2727 13.0739C33.9508 12.911 33.5833 12.8295 33.1705 12.8295C32.7538 12.8295 32.3826 12.911 32.0568 13.0739C31.7311 13.2367 31.4735 13.4621 31.2841 13.75C31.0985 14.0341 31.0076 14.3617 31.0114 14.733C31.0076 15.089 31.0947 15.4034 31.2727 15.6761C31.4508 15.9451 31.7008 16.1553 32.0227 16.3068C32.3485 16.4583 32.7311 16.5341 33.1705 16.5341ZM33.1705 11.233C33.5265 11.233 33.8409 11.161 34.1136 11.017C34.3902 10.8731 34.608 10.6723 34.767 10.4148C34.9261 10.1572 35.0076 9.85985 35.0114 9.52273C35.0076 9.18939 34.928 8.89773 34.7727 8.64773C34.6174 8.39394 34.4015 8.19886 34.125 8.0625C33.8485 7.92235 33.5303 7.85227 33.1705 7.85227C32.803 7.85227 32.4792 7.92235 32.1989 8.0625C31.9223 8.19886 31.7064 8.39394 31.5511 8.64773C31.3996 8.89773 31.3258 9.18939 31.3295 9.52273C31.3258 9.85985 31.4015 10.1572 31.5568 10.4148C31.7159 10.6686 31.9337 10.8693 32.2102 11.017C32.4905 11.161 32.8106 11.233 33.1705 11.233ZM43.4077 18.1591C42.6501 18.1591 41.9721 18.017 41.3736 17.733C40.7751 17.4451 40.2997 17.0511 39.9474 16.5511C39.599 16.0511 39.4134 15.4792 39.3906 14.8352H41.4361C41.474 15.3125 41.6804 15.7027 42.0554 16.0057C42.4304 16.3049 42.8812 16.4545 43.4077 16.4545C43.8205 16.4545 44.188 16.3598 44.5099 16.1705C44.8319 15.9811 45.0857 15.7178 45.2713 15.3807C45.4569 15.0436 45.5478 14.6591 45.544 14.2273C45.5478 13.7879 45.455 13.3977 45.2656 13.0568C45.0762 12.7159 44.8168 12.4489 44.4872 12.2557C44.1577 12.0587 43.7789 11.9602 43.3509 11.9602C43.0024 11.9564 42.6596 12.0208 42.3224 12.1534C41.9853 12.286 41.7183 12.4602 41.5213 12.6761L39.6179 12.3636L40.2259 6.36364H46.9759V8.125H41.9702L41.6349 11.2102H41.7031C41.919 10.9564 42.224 10.7462 42.6179 10.5795C43.0118 10.4091 43.4437 10.3239 43.9134 10.3239C44.6179 10.3239 45.2467 10.4905 45.7997 10.8239C46.3527 11.1534 46.7884 11.608 47.1065 12.1875C47.4247 12.767 47.5838 13.4299 47.5838 14.1761C47.5838 14.9451 47.4058 15.6307 47.0497 16.233C46.6974 16.8314 46.2069 17.303 45.5781 17.6477C44.9531 17.9886 44.2296 18.1591 43.4077 18.1591ZM53.5327 18.1591C52.7751 18.1591 52.0971 18.017 51.4986 17.733C50.9001 17.4451 50.4247 17.0511 50.0724 16.5511C49.724 16.0511 49.5384 15.4792 49.5156 14.8352H51.5611C51.599 15.3125 51.8054 15.7027 52.1804 16.0057C52.5554 16.3049 53.0062 16.4545 53.5327 16.4545C53.9455 16.4545 54.313 16.3598 54.6349 16.1705C54.9569 15.9811 55.2107 15.7178 55.3963 15.3807C55.5819 15.0436 55.6728 14.6591 55.669 14.2273C55.6728 13.7879 55.58 13.3977 55.3906 13.0568C55.2012 12.7159 54.9418 12.4489 54.6122 12.2557C54.2827 12.0587 53.9039 11.9602 53.4759 11.9602C53.1274 11.9564 52.7846 12.0208 52.4474 12.1534C52.1103 12.286 51.8433 12.4602 51.6463 12.6761L49.7429 12.3636L50.3509 6.36364H57.1009V8.125H52.0952L51.7599 11.2102H51.8281C52.044 10.9564 52.349 10.7462 52.7429 10.5795C53.1368 10.4091 53.5687 10.3239 54.0384 10.3239C54.7429 10.3239 55.3717 10.4905 55.9247 10.8239C56.4777 11.1534 56.9134 11.608 57.2315 12.1875C57.5497 12.767 57.7088 13.4299 57.7088 14.1761C57.7088 14.9451 57.5308 15.6307 57.1747 16.233C56.8224 16.8314 56.3319 17.303 55.7031 17.6477C55.0781 17.9886 54.3546 18.1591 53.5327 18.1591ZM63.7486 18.1591C62.9039 18.1591 62.1539 18.017 61.4986 17.733C60.8471 17.4489 60.3357 17.0606 59.9645 16.5682C59.5971 16.072 59.4152 15.5095 59.419 14.8807C59.4152 14.392 59.5213 13.9432 59.7372 13.5341C59.9531 13.125 60.2448 12.7841 60.6122 12.5114C60.9834 12.2348 61.3963 12.0587 61.8509 11.983V11.9034C61.2524 11.7708 60.7675 11.4659 60.3963 10.9886C60.0289 10.5076 59.8471 9.95265 59.8509 9.32386C59.8471 8.72538 60.0137 8.19129 60.3509 7.72159C60.688 7.25189 61.1501 6.88258 61.7372 6.61364C62.3243 6.34091 62.9948 6.20455 63.7486 6.20455C64.4948 6.20455 65.1596 6.34091 65.7429 6.61364C66.33 6.88258 66.7921 7.25189 67.1293 7.72159C67.4702 8.19129 67.6406 8.72538 67.6406 9.32386C67.6406 9.95265 67.4531 10.5076 67.0781 10.9886C66.7069 11.4659 66.2277 11.7708 65.6406 11.9034V11.983C66.0952 12.0587 66.5043 12.2348 66.8679 12.5114C67.2353 12.7841 67.527 13.125 67.7429 13.5341C67.9626 13.9432 68.0724 14.392 68.0724 14.8807C68.0724 15.5095 67.8868 16.072 67.5156 16.5682C67.1444 17.0606 66.633 17.4489 65.9815 17.733C65.3338 18.017 64.5895 18.1591 63.7486 18.1591ZM63.7486 16.5341C64.1842 16.5341 64.563 16.4602 64.8849 16.3125C65.2069 16.161 65.4569 15.9489 65.6349 15.6761C65.813 15.4034 65.9039 15.089 65.9077 14.733C65.9039 14.3617 65.8073 14.0341 65.6179 13.75C65.4323 13.4621 65.1766 13.2367 64.8509 13.0739C64.5289 12.911 64.1615 12.8295 63.7486 12.8295C63.3319 12.8295 62.9607 12.911 62.6349 13.0739C62.3092 13.2367 62.0516 13.4621 61.8622 13.75C61.6766 14.0341 61.5857 14.3617 61.5895 14.733C61.5857 15.089 61.6728 15.4034 61.8509 15.6761C62.0289 15.9451 62.2789 16.1553 62.6009 16.3068C62.9266 16.4583 63.3092 16.5341 63.7486 16.5341ZM63.7486 11.233C64.1046 11.233 64.419 11.161 64.6918 11.017C64.9683 10.8731 65.1861 10.6723 65.3452 10.4148C65.5043 10.1572 65.5857 9.85985 65.5895 9.52273C65.5857 9.18939 65.5062 8.89773 65.3509 8.64773C65.1955 8.39394 64.9796 8.19886 64.7031 8.0625C64.4266 7.92235 64.1084 7.85227 63.7486 7.85227C63.3812 7.85227 63.0573 7.92235 62.777 8.0625C62.5005 8.19886 62.2846 8.39394 62.1293 8.64773C61.9777 8.89773 61.9039 9.18939 61.9077 9.52273C61.9039 9.85985 61.9796 10.1572 62.1349 10.4148C62.294 10.6686 62.5118 10.8693 62.7884 11.017C63.0687 11.161 63.3887 11.233 63.7486 11.233ZM81.8182 10.0795C81.7235 9.77273 81.5928 9.49811 81.4261 9.25568C81.2633 9.00947 81.0663 8.79924 80.8352 8.625C80.608 8.45076 80.3466 8.32008 80.0511 8.23295C79.7557 8.14205 79.4337 8.09659 79.0852 8.09659C78.4602 8.09659 77.9034 8.25379 77.4148 8.56818C76.9261 8.88258 76.5417 9.3447 76.2614 9.95455C75.9848 10.5606 75.8466 11.2992 75.8466 12.1705C75.8466 13.0492 75.9848 13.7936 76.2614 14.4034C76.5379 15.0133 76.9223 15.4773 77.4148 15.7955C77.9072 16.1098 78.4792 16.267 79.1307 16.267C79.7216 16.267 80.233 16.1534 80.6648 15.9261C81.1004 15.6989 81.4356 15.3769 81.6705 14.9602C81.9053 14.5398 82.0227 14.0473 82.0227 13.483L82.5 13.5568H79.3409V11.9091H84.0625V13.3068C84.0625 14.303 83.8504 15.1648 83.4261 15.892C83.0019 16.6193 82.4186 17.1799 81.6761 17.5739C80.9337 17.964 80.0814 18.1591 79.1193 18.1591C78.0473 18.1591 77.1061 17.9186 76.2955 17.4375C75.4886 16.9527 74.858 16.2652 74.4034 15.375C73.9527 14.4811 73.7273 13.4205 73.7273 12.1932C73.7273 11.2538 73.8598 10.4148 74.125 9.67614C74.3939 8.9375 74.7689 8.31061 75.25 7.79545C75.7311 7.27651 76.2955 6.88258 76.9432 6.61364C77.5909 6.34091 78.2955 6.20455 79.0568 6.20455C79.7008 6.20455 80.3011 6.29924 80.858 6.48864C81.4148 6.67424 81.9091 6.93939 82.3409 7.28409C82.7765 7.62879 83.1345 8.03788 83.4148 8.51136C83.6951 8.98485 83.8788 9.50758 83.9659 10.0795H81.8182ZM86.0099 18V9.27273H88.0043V10.7273H88.0952C88.2543 10.2235 88.527 9.83523 88.9134 9.5625C89.3035 9.28598 89.7486 9.14773 90.2486 9.14773C90.3622 9.14773 90.4891 9.15341 90.6293 9.16477C90.7732 9.17235 90.8925 9.18561 90.9872 9.20455V11.0966C90.9001 11.0663 90.7618 11.0398 90.5724 11.017C90.3868 10.9905 90.2069 10.9773 90.0327 10.9773C89.6577 10.9773 89.3205 11.0587 89.0213 11.2216C88.7259 11.3807 88.4929 11.6023 88.3224 11.8864C88.152 12.1705 88.0668 12.4981 88.0668 12.8693V18H86.0099ZM95.858 18.1705C94.983 18.1705 94.2273 17.9886 93.5909 17.625C92.9583 17.2576 92.4716 16.7386 92.1307 16.0682C91.7898 15.3939 91.6193 14.6004 91.6193 13.6875C91.6193 12.7898 91.7898 12.0019 92.1307 11.3239C92.4754 10.642 92.9564 10.1117 93.5739 9.73295C94.1913 9.35038 94.9167 9.15909 95.75 9.15909C96.2879 9.15909 96.7955 9.24621 97.2727 9.42045C97.7538 9.59091 98.178 9.85606 98.5455 10.2159C98.9167 10.5758 99.2083 11.0341 99.4205 11.5909C99.6326 12.1439 99.7386 12.803 99.7386 13.5682V14.1989H92.5852V12.8125H97.767C97.7633 12.4186 97.678 12.0682 97.5114 11.7614C97.3447 11.4508 97.1117 11.2064 96.8125 11.0284C96.517 10.8504 96.1723 10.7614 95.7784 10.7614C95.358 10.7614 94.9886 10.8636 94.6705 11.0682C94.3523 11.2689 94.1042 11.5341 93.9261 11.8636C93.7519 12.1894 93.6629 12.5473 93.6591 12.9375V14.1477C93.6591 14.6553 93.7519 15.0909 93.9375 15.4545C94.1231 15.8144 94.3826 16.0909 94.7159 16.2841C95.0492 16.4735 95.4394 16.5682 95.8864 16.5682C96.1856 16.5682 96.4564 16.5265 96.6989 16.4432C96.9413 16.3561 97.1515 16.2292 97.3295 16.0625C97.5076 15.8958 97.642 15.6894 97.733 15.4432L99.6534 15.6591C99.5322 16.1667 99.3011 16.6098 98.9602 16.9886C98.6231 17.3636 98.1913 17.6553 97.6648 17.8636C97.1383 18.0682 96.536 18.1705 95.858 18.1705ZM105.342 18.1705C104.467 18.1705 103.712 17.9886 103.075 17.625C102.443 17.2576 101.956 16.7386 101.615 16.0682C101.274 15.3939 101.104 14.6004 101.104 13.6875C101.104 12.7898 101.274 12.0019 101.615 11.3239C101.96 10.642 102.441 10.1117 103.058 9.73295C103.676 9.35038 104.401 9.15909 105.234 9.15909C105.772 9.15909 106.28 9.24621 106.757 9.42045C107.238 9.59091 107.662 9.85606 108.03 10.2159C108.401 10.5758 108.693 11.0341 108.905 11.5909C109.117 12.1439 109.223 12.803 109.223 13.5682V14.1989H102.07V12.8125H107.251C107.248 12.4186 107.162 12.0682 106.996 11.7614C106.829 11.4508 106.596 11.2064 106.297 11.0284C106.001 10.8504 105.657 10.7614 105.263 10.7614C104.842 10.7614 104.473 10.8636 104.155 11.0682C103.837 11.2689 103.589 11.5341 103.411 11.8636C103.236 12.1894 103.147 12.5473 103.143 12.9375V14.1477C103.143 14.6553 103.236 15.0909 103.422 15.4545C103.607 15.8144 103.867 16.0909 104.2 16.2841C104.534 16.4735 104.924 16.5682 105.371 16.5682C105.67 16.5682 105.941 16.5265 106.183 16.4432C106.426 16.3561 106.636 16.2292 106.814 16.0625C106.992 15.8958 107.126 15.6894 107.217 15.4432L109.138 15.6591C109.017 16.1667 108.786 16.6098 108.445 16.9886C108.107 17.3636 107.676 17.6553 107.149 17.8636C106.623 18.0682 106.02 18.1705 105.342 18.1705ZM113.02 12.8864V18H110.963V9.27273H112.929V10.7557H113.031C113.232 10.267 113.552 9.87879 113.991 9.59091C114.435 9.30303 114.982 9.15909 115.634 9.15909C116.236 9.15909 116.76 9.28788 117.207 9.54545C117.658 9.80303 118.007 10.1761 118.253 10.6648C118.503 11.1534 118.626 11.7462 118.622 12.4432V18H116.565V12.7614C116.565 12.178 116.414 11.7216 116.111 11.392C115.812 11.0625 115.397 10.8977 114.866 10.8977C114.507 10.8977 114.187 10.9773 113.906 11.1364C113.63 11.2917 113.412 11.517 113.253 11.8125C113.098 12.108 113.02 12.4659 113.02 12.8864ZM124.773 18V6.36364H129.136C130.03 6.36364 130.78 6.51894 131.386 6.82955C131.996 7.14015 132.456 7.57576 132.767 8.13636C133.081 8.69318 133.239 9.3428 133.239 10.0852C133.239 10.8314 133.08 11.4792 132.761 12.0284C132.447 12.5739 131.983 12.9962 131.369 13.2955C130.756 13.5909 130.002 13.7386 129.108 13.7386H126V11.9886H128.824C129.347 11.9886 129.775 11.9167 130.108 11.7727C130.441 11.625 130.688 11.411 130.847 11.1307C131.009 10.8466 131.091 10.4981 131.091 10.0852C131.091 9.67235 131.009 9.32008 130.847 9.02841C130.684 8.73295 130.436 8.50947 130.102 8.35795C129.769 8.20265 129.339 8.125 128.812 8.125H126.881V18H124.773ZM130.784 12.7273L133.665 18H131.312L128.483 12.7273H130.784ZM138.202 18.1534C137.516 18.1534 136.902 17.9773 136.361 17.625C135.819 17.2727 135.391 16.7614 135.077 16.0909C134.762 15.4205 134.605 14.6061 134.605 13.6477C134.605 12.678 134.764 11.8598 135.082 11.1932C135.404 10.5227 135.838 10.017 136.384 9.67614C136.929 9.33144 137.537 9.15909 138.207 9.15909C138.719 9.15909 139.139 9.24621 139.469 9.42045C139.798 9.59091 140.06 9.79735 140.253 10.0398C140.446 10.2784 140.596 10.5038 140.702 10.7159H140.787V6.36364H142.849V18H140.827V16.625H140.702C140.596 16.8371 140.442 17.0625 140.241 17.3011C140.041 17.536 139.776 17.7367 139.446 17.9034C139.116 18.0701 138.702 18.1534 138.202 18.1534ZM138.776 16.4659C139.211 16.4659 139.582 16.3485 139.889 16.1136C140.196 15.875 140.429 15.5436 140.588 15.1193C140.747 14.6951 140.827 14.2008 140.827 13.6364C140.827 13.072 140.747 12.5814 140.588 12.1648C140.433 11.7481 140.202 11.4242 139.895 11.1932C139.592 10.9621 139.219 10.8466 138.776 10.8466C138.317 10.8466 137.935 10.9659 137.628 11.2045C137.321 11.4432 137.09 11.7727 136.935 12.1932C136.779 12.6136 136.702 13.0947 136.702 13.6364C136.702 14.1818 136.779 14.6686 136.935 15.0966C137.094 15.5208 137.327 15.8561 137.634 16.1023C137.944 16.3447 138.325 16.4659 138.776 16.4659ZM146.308 18.125C145.964 18.125 145.668 18.0038 145.422 17.7614C145.176 17.5189 145.054 17.2235 145.058 16.875C145.054 16.5341 145.176 16.2424 145.422 16C145.668 15.7576 145.964 15.6364 146.308 15.6364C146.642 15.6364 146.931 15.7576 147.178 16C147.428 16.2424 147.554 16.5341 147.558 16.875C147.554 17.1061 147.494 17.3163 147.376 17.5057C147.263 17.6951 147.111 17.8466 146.922 17.9602C146.736 18.0701 146.532 18.125 146.308 18.125ZM152.097 16.4091L152.023 17.0341C151.97 17.5114 151.875 17.9962 151.739 18.4886C151.606 18.9848 151.466 19.4413 151.318 19.858C151.17 20.2746 151.051 20.6023 150.96 20.8409H149.574C149.627 20.6098 149.699 20.2955 149.79 19.8977C149.884 19.5 149.975 19.053 150.062 18.5568C150.15 18.0606 150.208 17.5568 150.239 17.0455L150.278 16.4091H152.097ZM162.07 18V6.36364H164.178V16.233H169.303V18H162.07ZM173.064 18H170.814L174.911 6.36364H177.513L181.615 18H179.365L176.257 8.75H176.166L173.064 18ZM173.138 13.4375H179.274V15.1307H173.138V13.4375Z" fill="#E1D4C9"/>
</svg>
