<svg width="175" height="28" viewBox="0 0 175 28" fill="none" xmlns="http://www.w3.org/2000/svg">
<path d="M15.0984 12.2516L11.6665 12.9166C9.34845 11.7531 7.91654 10.4166 7.08321 8.33329L7.72483 4.89154L6.51197 1.66663L3.72946 1.66663C2.60191 1.66663 1.71466 2.59958 1.90108 3.71161C2.29888 6.08454 3.37231 10.0391 6.24987 12.9166C9.27338 15.9401 13.5661 17.3318 16.1378 17.9288C17.299 18.1983 18.3332 17.2908 18.3332 16.0988L18.3332 13.4843L15.0984 12.2516Z" stroke="#E1D4C9" stroke-width="1.5" stroke-linecap="round" stroke-linejoin="round"/>
<path d="M32.4886 16.1364V8.27273H34.2727V16.1364H32.4886ZM29.4489 13.0966V11.3125H37.3125V13.0966H29.4489ZM44.5327 6.36364V18H42.4247V8.41477H42.3565L39.6349 10.1534V8.22159L42.527 6.36364H44.5327ZM51.9901 12.1818C51.9901 10.7614 52.1776 9.45644 52.5526 8.26705C52.9313 7.07386 53.4938 5.97159 54.2401 4.96023H56.1776C55.8897 5.33523 55.6207 5.79545 55.3707 6.34091C55.1207 6.88258 54.9029 7.47727 54.7173 8.125C54.5355 8.76894 54.3916 9.4375 54.2855 10.1307C54.1832 10.8239 54.1321 11.5076 54.1321 12.1818C54.1321 13.0795 54.2211 13.9886 54.3991 14.9091C54.581 15.8295 54.8253 16.6837 55.1321 17.4716C55.4427 18.2557 55.7912 18.8977 56.1776 19.3977H54.2401C53.4938 18.3864 52.9313 17.286 52.5526 16.0966C52.1776 14.9034 51.9901 13.5985 51.9901 12.1818ZM62.0142 18.1591C61.4574 18.1553 60.9138 18.0587 60.3835 17.8693C59.8532 17.6761 59.3759 17.3636 58.9517 16.9318C58.5275 16.4962 58.1903 15.9186 57.9403 15.1989C57.6903 14.4754 57.5672 13.5795 57.571 12.5114C57.571 11.5152 57.6771 10.6269 57.8892 9.84659C58.1013 9.06629 58.4062 8.4072 58.804 7.86932C59.2017 7.32765 59.6809 6.91477 60.2415 6.63068C60.8059 6.34659 61.4366 6.20455 62.1335 6.20455C62.8646 6.20455 63.5123 6.34848 64.0767 6.63636C64.6449 6.92424 65.1032 7.31818 65.4517 7.81818C65.8002 8.31439 66.0161 8.875 66.0994 9.5H64.0256C63.9195 9.05303 63.7017 8.69697 63.3722 8.43182C63.0464 8.16288 62.6335 8.02841 62.1335 8.02841C61.3267 8.02841 60.7055 8.37879 60.2699 9.07955C59.8381 9.7803 59.6203 10.7424 59.6165 11.9659H59.696C59.8816 11.6326 60.1222 11.3466 60.4176 11.108C60.7131 10.8693 61.0464 10.6856 61.4176 10.5568C61.7926 10.4242 62.1884 10.358 62.6051 10.358C63.2869 10.358 63.8987 10.5208 64.4403 10.8466C64.9858 11.1723 65.4176 11.6212 65.7358 12.1932C66.054 12.7614 66.2112 13.4129 66.2074 14.1477C66.2112 14.9129 66.0369 15.6004 65.6847 16.2102C65.3324 16.8163 64.8419 17.2936 64.2131 17.642C63.5843 17.9905 62.8513 18.1629 62.0142 18.1591ZM62.0028 16.4545C62.4157 16.4545 62.785 16.3542 63.1108 16.1534C63.4366 15.9527 63.6941 15.6818 63.8835 15.3409C64.0729 15 64.1657 14.6174 64.1619 14.1932C64.1657 13.7765 64.0748 13.3996 63.8892 13.0625C63.7074 12.7254 63.4555 12.4583 63.1335 12.2614C62.8116 12.0644 62.4441 11.9659 62.0312 11.9659C61.7244 11.9659 61.4384 12.0246 61.1733 12.142C60.9081 12.2595 60.6771 12.4223 60.4801 12.6307C60.2831 12.8352 60.1278 13.0739 60.0142 13.3466C59.9044 13.6155 59.8475 13.9034 59.8438 14.2102C59.8475 14.6155 59.9422 14.9886 60.1278 15.3295C60.3134 15.6705 60.5691 15.9432 60.8949 16.1477C61.2206 16.3523 61.59 16.4545 62.0028 16.4545ZM72.429 18.2216C71.4934 18.2216 70.6903 17.9848 70.0199 17.5114C69.3532 17.0341 68.84 16.3466 68.4801 15.4489C68.1241 14.5473 67.946 13.4621 67.946 12.1932C67.9498 10.9242 68.1297 9.8447 68.4858 8.95455C68.8456 8.06061 69.3589 7.37879 70.0256 6.90909C70.696 6.43939 71.4972 6.20455 72.429 6.20455C73.3608 6.20455 74.1619 6.43939 74.8324 6.90909C75.5028 7.37879 76.0161 8.06061 76.3722 8.95455C76.732 9.84848 76.9119 10.928 76.9119 12.1932C76.9119 13.4659 76.732 14.553 76.3722 15.4545C76.0161 16.3523 75.5028 17.0379 74.8324 17.5114C74.1657 17.9848 73.3646 18.2216 72.429 18.2216ZM72.429 16.4432C73.1563 16.4432 73.7301 16.0852 74.1506 15.3693C74.5748 14.6496 74.7869 13.5909 74.7869 12.1932C74.7869 11.2689 74.6903 10.4924 74.4972 9.86364C74.304 9.23485 74.0313 8.76136 73.679 8.44318C73.3267 8.12121 72.91 7.96023 72.429 7.96023C71.7055 7.96023 71.1335 8.32008 70.7131 9.03977C70.2926 9.75568 70.0805 10.8068 70.0767 12.1932C70.0729 13.1212 70.1657 13.9015 70.3551 14.5341C70.5483 15.1667 70.821 15.6439 71.1733 15.9659C71.5256 16.2841 71.9441 16.4432 72.429 16.4432ZM82.9759 18.1591C82.1577 18.1591 81.4304 18.0189 80.794 17.7386C80.1615 17.4583 79.6615 17.0682 79.294 16.5682C78.9266 16.0682 78.7315 15.4905 78.7088 14.8352H80.8452C80.8641 15.1496 80.9683 15.4242 81.1577 15.6591C81.3471 15.8902 81.599 16.0701 81.9134 16.1989C82.2277 16.3277 82.58 16.392 82.9702 16.392C83.3868 16.392 83.7562 16.3201 84.0781 16.1761C84.4001 16.0284 84.652 15.8239 84.8338 15.5625C85.0156 15.3011 85.1046 15 85.1009 14.6591C85.1046 14.3068 85.0137 13.9962 84.8281 13.7273C84.6425 13.4583 84.3736 13.2481 84.0213 13.0966C83.6728 12.9451 83.2524 12.8693 82.7599 12.8693H81.7315V11.2443H82.7599C83.1652 11.2443 83.5194 11.1742 83.8224 11.0341C84.1293 10.8939 84.3698 10.697 84.544 10.4432C84.7183 10.1856 84.8035 9.88826 84.7997 9.55114C84.8035 9.22159 84.7296 8.93561 84.5781 8.69318C84.4304 8.44697 84.2202 8.25568 83.9474 8.11932C83.6785 7.98295 83.3622 7.91477 82.9986 7.91477C82.6425 7.91477 82.313 7.97917 82.0099 8.10795C81.7069 8.23674 81.4626 8.42045 81.277 8.65909C81.0914 8.89394 80.9929 9.17424 80.9815 9.5H78.9531C78.9683 8.84848 79.1558 8.27652 79.5156 7.78409C79.8793 7.28788 80.3641 6.90151 80.9702 6.625C81.5762 6.3447 82.2562 6.20455 83.0099 6.20455C83.7865 6.20455 84.4607 6.35038 85.0327 6.64205C85.6084 6.92992 86.0535 7.31818 86.3679 7.80682C86.6823 8.29545 86.8395 8.83523 86.8395 9.42614C86.8433 10.0814 86.6501 10.6307 86.2599 11.0739C85.8736 11.517 85.366 11.8068 84.7372 11.9432V12.0341C85.5554 12.1477 86.1823 12.4508 86.6179 12.9432C87.0573 13.4318 87.2751 14.0398 87.2713 14.767C87.2713 15.4186 87.0857 16.0019 86.7145 16.517C86.3471 17.0284 85.8395 17.4299 85.1918 17.7216C84.5478 18.0133 83.8092 18.1591 82.9759 18.1591ZM92.9148 12.1818C92.9148 13.5985 92.7254 14.9034 92.3466 16.0966C91.9716 17.286 91.411 18.3864 90.6648 19.3977H88.7273C89.0189 19.0227 89.2879 18.5644 89.5341 18.0227C89.7841 17.4811 90 16.8864 90.1818 16.2386C90.3674 15.5909 90.5114 14.9205 90.6136 14.2273C90.7197 13.5341 90.7727 12.8523 90.7727 12.1818C90.7727 11.2841 90.6818 10.375 90.5 9.45455C90.322 8.53409 90.0777 7.67992 89.767 6.89205C89.4602 6.10417 89.1136 5.46023 88.7273 4.96023H90.6648C91.411 5.97159 91.9716 7.07386 92.3466 8.26705C92.7254 9.45644 92.9148 10.7614 92.9148 12.1818ZM103.533 18.1591C102.775 18.1591 102.097 18.017 101.499 17.733C100.9 17.4451 100.425 17.0511 100.072 16.5511C99.724 16.0511 99.5384 15.4792 99.5156 14.8352H101.561C101.599 15.3125 101.805 15.7027 102.18 16.0057C102.555 16.3049 103.006 16.4545 103.533 16.4545C103.946 16.4545 104.313 16.3598 104.635 16.1705C104.957 15.9811 105.211 15.7178 105.396 15.3807C105.582 15.0436 105.673 14.6591 105.669 14.2273C105.673 13.7879 105.58 13.3977 105.391 13.0568C105.201 12.7159 104.942 12.4489 104.612 12.2557C104.283 12.0587 103.904 11.9602 103.476 11.9602C103.127 11.9564 102.785 12.0208 102.447 12.1534C102.11 12.286 101.843 12.4602 101.646 12.6761L99.7429 12.3636L100.351 6.36364H107.101V8.125H102.095L101.76 11.2102H101.828C102.044 10.9564 102.349 10.7462 102.743 10.5795C103.137 10.4091 103.569 10.3239 104.038 10.3239C104.743 10.3239 105.372 10.4905 105.925 10.8239C106.478 11.1534 106.913 11.608 107.232 12.1875C107.55 12.767 107.709 13.4299 107.709 14.1761C107.709 14.9451 107.531 15.6307 107.175 16.233C106.822 16.8314 106.332 17.303 105.703 17.6477C105.078 17.9886 104.355 18.1591 103.533 18.1591ZM113.658 18.1591C112.9 18.1591 112.222 18.017 111.624 17.733C111.025 17.4451 110.55 17.0511 110.197 16.5511C109.849 16.0511 109.663 15.4792 109.641 14.8352H111.686C111.724 15.3125 111.93 15.7027 112.305 16.0057C112.68 16.3049 113.131 16.4545 113.658 16.4545C114.071 16.4545 114.438 16.3598 114.76 16.1705C115.082 15.9811 115.336 15.7178 115.521 15.3807C115.707 15.0436 115.798 14.6591 115.794 14.2273C115.798 13.7879 115.705 13.3977 115.516 13.0568C115.326 12.7159 115.067 12.4489 114.737 12.2557C114.408 12.0587 114.029 11.9602 113.601 11.9602C113.252 11.9564 112.91 12.0208 112.572 12.1534C112.235 12.286 111.968 12.4602 111.771 12.6761L109.868 12.3636L110.476 6.36364H117.226V8.125H112.22L111.885 11.2102H111.953C112.169 10.9564 112.474 10.7462 112.868 10.5795C113.262 10.4091 113.694 10.3239 114.163 10.3239C114.868 10.3239 115.497 10.4905 116.05 10.8239C116.603 11.1534 117.038 11.608 117.357 12.1875C117.675 12.767 117.834 13.4299 117.834 14.1761C117.834 14.9451 117.656 15.6307 117.3 16.233C116.947 16.8314 116.457 17.303 115.828 17.6477C115.203 17.9886 114.48 18.1591 113.658 18.1591ZM123.783 18.1591C123.025 18.1591 122.347 18.017 121.749 17.733C121.15 17.4451 120.675 17.0511 120.322 16.5511C119.974 16.0511 119.788 15.4792 119.766 14.8352H121.811C121.849 15.3125 122.055 15.7027 122.43 16.0057C122.805 16.3049 123.256 16.4545 123.783 16.4545C124.196 16.4545 124.563 16.3598 124.885 16.1705C125.207 15.9811 125.461 15.7178 125.646 15.3807C125.832 15.0436 125.923 14.6591 125.919 14.2273C125.923 13.7879 125.83 13.3977 125.641 13.0568C125.451 12.7159 125.192 12.4489 124.862 12.2557C124.533 12.0587 124.154 11.9602 123.726 11.9602C123.377 11.9564 123.035 12.0208 122.697 12.1534C122.36 12.286 122.093 12.4602 121.896 12.6761L119.993 12.3636L120.601 6.36364H127.351V8.125H122.345L122.01 11.2102H122.078C122.294 10.9564 122.599 10.7462 122.993 10.5795C123.387 10.4091 123.819 10.3239 124.288 10.3239C124.993 10.3239 125.622 10.4905 126.175 10.8239C126.728 11.1534 127.163 11.608 127.482 12.1875C127.8 12.767 127.959 13.4299 127.959 14.1761C127.959 14.9451 127.781 15.6307 127.425 16.233C127.072 16.8314 126.582 17.303 125.953 17.6477C125.328 17.9886 124.605 18.1591 123.783 18.1591ZM135.175 11.3352V13.0284H129.936V11.3352H135.175ZM141.616 18.2216C140.681 18.2216 139.878 17.9848 139.207 17.5114C138.541 17.0341 138.027 16.3466 137.668 15.4489C137.312 14.5473 137.134 13.4621 137.134 12.1932C137.137 10.9242 137.317 9.8447 137.673 8.95455C138.033 8.06061 138.546 7.37879 139.213 6.90909C139.884 6.43939 140.685 6.20455 141.616 6.20455C142.548 6.20455 143.349 6.43939 144.02 6.90909C144.69 7.37879 145.204 8.06061 145.56 8.95455C145.92 9.84848 146.099 10.928 146.099 12.1932C146.099 13.4659 145.92 14.553 145.56 15.4545C145.204 16.3523 144.69 17.0379 144.02 17.5114C143.353 17.9848 142.552 18.2216 141.616 18.2216ZM141.616 16.4432C142.344 16.4432 142.918 16.0852 143.338 15.3693C143.762 14.6496 143.974 13.5909 143.974 12.1932C143.974 11.2689 143.878 10.4924 143.685 9.86364C143.491 9.23485 143.219 8.76136 142.866 8.44318C142.514 8.12121 142.098 7.96023 141.616 7.96023C140.893 7.96023 140.321 8.32008 139.901 9.03977C139.48 9.75568 139.268 10.8068 139.264 12.1932C139.26 13.1212 139.353 13.9015 139.543 14.5341C139.736 15.1667 140.009 15.6439 140.361 15.9659C140.713 16.2841 141.132 16.4432 141.616 16.4432ZM152.72 6.36364V18H150.612V8.41477H150.544L147.822 10.1534V8.22159L150.714 6.36364H152.72ZM155.675 18V16.4773L159.714 12.517C160.101 12.1269 160.423 11.7803 160.68 11.4773C160.938 11.1742 161.131 10.8807 161.26 10.5966C161.389 10.3125 161.453 10.0095 161.453 9.6875C161.453 9.32008 161.37 9.00568 161.203 8.74432C161.036 8.47917 160.807 8.27462 160.516 8.13068C160.224 7.98674 159.893 7.91477 159.521 7.91477C159.139 7.91477 158.804 7.99432 158.516 8.15341C158.228 8.30871 158.004 8.5303 157.845 8.81818C157.69 9.10606 157.612 9.44886 157.612 9.84659H155.607C155.607 9.10795 155.775 8.46591 156.112 7.92045C156.449 7.375 156.913 6.95265 157.504 6.65341C158.099 6.35417 158.781 6.20455 159.55 6.20455C160.33 6.20455 161.016 6.35038 161.607 6.64205C162.197 6.93371 162.656 7.33333 162.982 7.84091C163.311 8.34848 163.476 8.92803 163.476 9.57955C163.476 10.0152 163.393 10.4432 163.226 10.8636C163.059 11.2841 162.766 11.75 162.345 12.2614C161.929 12.7727 161.343 13.392 160.589 14.1193L158.584 16.1591V16.2386H163.652V18H155.675ZM169.788 18.1591C168.97 18.1591 168.243 18.0189 167.607 17.7386C166.974 17.4583 166.474 17.0682 166.107 16.5682C165.739 16.0682 165.544 15.4905 165.521 14.8352H167.658C167.677 15.1496 167.781 15.4242 167.97 15.6591C168.16 15.8902 168.411 16.0701 168.726 16.1989C169.04 16.3277 169.393 16.392 169.783 16.392C170.199 16.392 170.569 16.3201 170.891 16.1761C171.213 16.0284 171.464 15.8239 171.646 15.5625C171.828 15.3011 171.917 15 171.913 14.6591C171.917 14.3068 171.826 13.9962 171.641 13.7273C171.455 13.4583 171.186 13.2481 170.834 13.0966C170.485 12.9451 170.065 12.8693 169.572 12.8693H168.544V11.2443H169.572C169.978 11.2443 170.332 11.1742 170.635 11.0341C170.942 10.8939 171.182 10.697 171.357 10.4432C171.531 10.1856 171.616 9.88826 171.612 9.55114C171.616 9.22159 171.542 8.93561 171.391 8.69318C171.243 8.44697 171.033 8.25568 170.76 8.11932C170.491 7.98295 170.175 7.91477 169.811 7.91477C169.455 7.91477 169.125 7.97917 168.822 8.10795C168.519 8.23674 168.275 8.42045 168.089 8.65909C167.904 8.89394 167.805 9.17424 167.794 9.5H165.766C165.781 8.84848 165.968 8.27652 166.328 7.78409C166.692 7.28788 167.177 6.90151 167.783 6.625C168.389 6.3447 169.069 6.20455 169.822 6.20455C170.599 6.20455 171.273 6.35038 171.845 6.64205C172.421 6.92992 172.866 7.31818 173.18 7.80682C173.495 8.29545 173.652 8.83523 173.652 9.42614C173.656 10.0814 173.463 10.6307 173.072 11.0739C172.686 11.517 172.179 11.8068 171.55 11.9432V12.0341C172.368 12.1477 172.995 12.4508 173.43 12.9432C173.87 13.4318 174.088 14.0398 174.084 14.767C174.084 15.4186 173.898 16.0019 173.527 16.517C173.16 17.0284 172.652 17.4299 172.004 17.7216C171.36 18.0133 170.622 18.1591 169.788 18.1591Z" fill="#E1D4C9"/>
</svg>
