<svg width="262" height="24" viewBox="0 0 262 24" fill="none" xmlns="http://www.w3.org/2000/svg">
<g clip-path="url(#clip0_227_2036)">
<path d="M10 5L10 10L15 10" stroke="#E1D4C9" stroke-width="1.5" stroke-linecap="round" stroke-linejoin="round"/>
<path d="M10.0003 18.3333C14.6027 18.3333 18.3337 14.6024 18.3337 9.99999C18.3337 5.39762 14.6027 1.66666 10.0003 1.66666C5.39795 1.66666 1.66699 5.39762 1.66699 9.99999C1.66699 14.6024 5.39795 18.3333 10.0003 18.3333Z" stroke="#E1D4C9" stroke-width="1.5" stroke-linecap="round" stroke-linejoin="round"/>
</g>
<path d="M29.1477 6.36364H31.7273L35.1818 14.7955H35.3182L38.7727 6.36364H41.3523V18H39.3295V10.0057H39.2216L36.0057 17.9659H34.4943L31.2784 9.98864H31.1705V18H29.1477V6.36364ZM47.3636 18.1705C46.5114 18.1705 45.7727 17.983 45.1477 17.608C44.5227 17.233 44.0379 16.7083 43.6932 16.0341C43.3523 15.3598 43.1818 14.572 43.1818 13.6705C43.1818 12.7689 43.3523 11.9792 43.6932 11.3011C44.0379 10.6231 44.5227 10.0966 45.1477 9.72159C45.7727 9.34659 46.5114 9.15909 47.3636 9.15909C48.2159 9.15909 48.9545 9.34659 49.5795 9.72159C50.2045 10.0966 50.6875 10.6231 51.0284 11.3011C51.3731 11.9792 51.5455 12.7689 51.5455 13.6705C51.5455 14.572 51.3731 15.3598 51.0284 16.0341C50.6875 16.7083 50.2045 17.233 49.5795 17.608C48.9545 17.983 48.2159 18.1705 47.3636 18.1705ZM47.375 16.5227C47.8371 16.5227 48.2235 16.3958 48.5341 16.142C48.8447 15.8845 49.0758 15.5398 49.2273 15.108C49.3826 14.6761 49.4602 14.1951 49.4602 13.6648C49.4602 13.1307 49.3826 12.6477 49.2273 12.2159C49.0758 11.7803 48.8447 11.4337 48.5341 11.1761C48.2235 10.9186 47.8371 10.7898 47.375 10.7898C46.9015 10.7898 46.5076 10.9186 46.1932 11.1761C45.8826 11.4337 45.6496 11.7803 45.4943 12.2159C45.3428 12.6477 45.267 13.1307 45.267 13.6648C45.267 14.1951 45.3428 14.6761 45.4943 15.108C45.6496 15.5398 45.8826 15.8845 46.1932 16.142C46.5076 16.3958 46.9015 16.5227 47.375 16.5227ZM55.348 12.8864V18H53.2912V9.27273H55.2571V10.7557H55.3594C55.5601 10.267 55.8802 9.87879 56.3196 9.59091C56.7628 9.30303 57.3101 9.15909 57.9616 9.15909C58.5639 9.15909 59.0885 9.28788 59.5355 9.54545C59.9863 9.80303 60.3348 10.1761 60.581 10.6648C60.831 11.1534 60.9541 11.7462 60.9503 12.4432V18H58.8935V12.7614C58.8935 12.178 58.742 11.7216 58.4389 11.392C58.1397 11.0625 57.7249 10.8977 57.1946 10.8977C56.8348 10.8977 56.5147 10.9773 56.2344 11.1364C55.9579 11.2917 55.7401 11.517 55.581 11.8125C55.4257 12.108 55.348 12.4659 55.348 12.8864ZM68.331 12.3068V14H63.0923V12.3068H68.331ZM76.9091 9.5625C76.8561 9.06629 76.6326 8.67992 76.2386 8.40341C75.8485 8.12689 75.3409 7.98864 74.7159 7.98864C74.2765 7.98864 73.8996 8.05492 73.5852 8.1875C73.2708 8.32008 73.0303 8.5 72.8636 8.72727C72.697 8.95455 72.6117 9.21402 72.608 9.50568C72.608 9.74811 72.6629 9.95833 72.7727 10.1364C72.8864 10.3144 73.0398 10.4659 73.233 10.5909C73.4261 10.7121 73.6402 10.8144 73.875 10.8977C74.1098 10.9811 74.3466 11.0511 74.5852 11.108L75.6761 11.3807C76.1155 11.483 76.5379 11.6212 76.9432 11.7955C77.3523 11.9697 77.7178 12.1894 78.0398 12.4545C78.3655 12.7197 78.6231 13.0398 78.8125 13.4148C79.0019 13.7898 79.0966 14.2292 79.0966 14.733C79.0966 15.4148 78.9223 16.0152 78.5739 16.5341C78.2254 17.0492 77.7216 17.4527 77.0625 17.7443C76.4072 18.0322 75.6136 18.1761 74.6818 18.1761C73.7765 18.1761 72.9905 18.036 72.3239 17.7557C71.661 17.4754 71.142 17.0663 70.767 16.5284C70.3958 15.9905 70.1951 15.3352 70.1648 14.5625H72.2386C72.2689 14.9678 72.3939 15.3049 72.6136 15.5739C72.8333 15.8428 73.1193 16.0436 73.4716 16.1761C73.8277 16.3087 74.2254 16.375 74.6648 16.375C75.1231 16.375 75.5246 16.3068 75.8693 16.1705C76.2178 16.0303 76.4905 15.8371 76.6875 15.5909C76.8845 15.3409 76.9848 15.0492 76.9886 14.7159C76.9848 14.4129 76.8958 14.1629 76.7216 13.9659C76.5473 13.7652 76.303 13.5985 75.9886 13.4659C75.678 13.3295 75.3144 13.2083 74.8977 13.1023L73.5739 12.7614C72.6155 12.5152 71.858 12.142 71.3011 11.642C70.7481 11.1383 70.4716 10.4697 70.4716 9.63636C70.4716 8.95076 70.6572 8.35038 71.0284 7.83523C71.4034 7.32008 71.9129 6.92045 72.5568 6.63636C73.2008 6.34848 73.9299 6.20455 74.7443 6.20455C75.5701 6.20455 76.2936 6.34848 76.9148 6.63636C77.5398 6.92045 78.0303 7.31629 78.3864 7.82386C78.7424 8.32765 78.9261 8.9072 78.9375 9.5625H76.9091ZM83.3963 18.1761C82.8433 18.1761 82.3452 18.0777 81.902 17.8807C81.4626 17.6799 81.1141 17.3845 80.8565 16.9943C80.6027 16.6042 80.4759 16.1231 80.4759 15.5511C80.4759 15.0587 80.5668 14.6515 80.7486 14.3295C80.9304 14.0076 81.1785 13.75 81.4929 13.5568C81.8073 13.3636 82.1615 13.2178 82.5554 13.1193C82.9531 13.017 83.3641 12.9432 83.7884 12.8977C84.2997 12.8447 84.7145 12.7973 85.0327 12.7557C85.3509 12.7102 85.5819 12.642 85.7259 12.5511C85.8736 12.4564 85.9474 12.3106 85.9474 12.1136V12.0795C85.9474 11.6515 85.8205 11.3201 85.5668 11.0852C85.313 10.8504 84.9474 10.733 84.4702 10.733C83.9664 10.733 83.5668 10.8428 83.2713 11.0625C82.9796 11.2822 82.7827 11.5417 82.6804 11.8409L80.7599 11.5682C80.9115 11.0379 81.1615 10.5947 81.5099 10.2386C81.8584 9.87879 82.2846 9.60985 82.7884 9.43182C83.2921 9.25 83.849 9.15909 84.4588 9.15909C84.8793 9.15909 85.2978 9.20833 85.7145 9.30682C86.1312 9.4053 86.5118 9.56818 86.8565 9.79545C87.2012 10.0189 87.4777 10.3239 87.6861 10.7102C87.8982 11.0966 88.0043 11.5795 88.0043 12.1591V18H86.027V16.8011H85.9588C85.8338 17.0436 85.6577 17.2708 85.4304 17.483C85.2069 17.6913 84.9247 17.8598 84.5838 17.9886C84.2467 18.1136 83.8509 18.1761 83.3963 18.1761ZM83.9304 16.6648C84.3433 16.6648 84.7012 16.5833 85.0043 16.4205C85.3073 16.2538 85.5402 16.0341 85.7031 15.7614C85.8698 15.4886 85.9531 15.1913 85.9531 14.8693V13.8409C85.8887 13.8939 85.7789 13.9432 85.6236 13.9886C85.4721 14.0341 85.3016 14.0739 85.1122 14.108C84.9228 14.142 84.7353 14.1723 84.5497 14.1989C84.3641 14.2254 84.2031 14.2481 84.0668 14.267C83.7599 14.3087 83.4853 14.3769 83.2429 14.4716C83.0005 14.5663 82.8092 14.6989 82.669 14.8693C82.5289 15.036 82.4588 15.2519 82.4588 15.517C82.4588 15.8958 82.5971 16.1818 82.8736 16.375C83.1501 16.5682 83.5024 16.6648 83.9304 16.6648ZM94.4304 9.27273V10.8636H89.4134V9.27273H94.4304ZM90.652 7.18182H92.7088V15.375C92.7088 15.6515 92.7505 15.8636 92.8338 16.0114C92.9209 16.1553 93.0346 16.2538 93.1747 16.3068C93.3149 16.3598 93.4702 16.3864 93.6406 16.3864C93.7694 16.3864 93.8868 16.3769 93.9929 16.358C94.1027 16.339 94.1861 16.322 94.2429 16.3068L94.5895 17.9148C94.4796 17.9527 94.3224 17.9943 94.1179 18.0398C93.9171 18.0852 93.6709 18.1117 93.3793 18.1193C92.8641 18.1345 92.4001 18.0568 91.9872 17.8864C91.5743 17.7121 91.2467 17.4432 91.0043 17.0795C90.7656 16.7159 90.6482 16.2614 90.652 15.7159V7.18182ZM97.4176 18.125C97.0729 18.125 96.7775 18.0038 96.5312 17.7614C96.285 17.5189 96.1638 17.2235 96.1676 16.875C96.1638 16.5341 96.285 16.2424 96.5312 16C96.7775 15.7576 97.0729 15.6364 97.4176 15.6364C97.7509 15.6364 98.0407 15.7576 98.2869 16C98.5369 16.2424 98.6638 16.5341 98.6676 16.875C98.6638 17.1061 98.6032 17.3163 98.4858 17.5057C98.3722 17.6951 98.2206 17.8466 98.0312 17.9602C97.8456 18.0701 97.6411 18.125 97.4176 18.125ZM97.4176 11.8977C97.0729 11.8977 96.7775 11.7765 96.5312 11.5341C96.285 11.2879 96.1638 10.9924 96.1676 10.6477C96.1638 10.3068 96.285 10.0152 96.5312 9.77273C96.7775 9.52652 97.0729 9.40341 97.4176 9.40341C97.7509 9.40341 98.0407 9.52652 98.2869 9.77273C98.5369 10.0152 98.6638 10.3068 98.6676 10.6477C98.6638 10.875 98.6032 11.0833 98.4858 11.2727C98.3722 11.4621 98.2206 11.6136 98.0312 11.7273C97.8456 11.8409 97.6411 11.8977 97.4176 11.8977ZM108.777 6.20455C109.334 6.20833 109.875 6.30682 110.402 6.5C110.932 6.68939 111.41 7 111.834 7.43182C112.258 7.85985 112.595 8.43371 112.845 9.15341C113.095 9.87311 113.22 10.7633 113.22 11.8239C113.224 12.8239 113.118 13.7178 112.902 14.5057C112.69 15.2898 112.385 15.9527 111.987 16.4943C111.589 17.036 111.11 17.4489 110.55 17.733C109.989 18.017 109.358 18.1591 108.658 18.1591C107.923 18.1591 107.271 18.0152 106.703 17.7273C106.139 17.4394 105.682 17.0455 105.334 16.5455C104.985 16.0455 104.771 15.4735 104.692 14.8295H106.766C106.872 15.2917 107.088 15.6591 107.413 15.9318C107.743 16.2008 108.158 16.3352 108.658 16.3352C109.464 16.3352 110.086 15.9848 110.521 15.2841C110.957 14.5833 111.175 13.6098 111.175 12.3636H111.095C110.91 12.697 110.669 12.9848 110.374 13.2273C110.078 13.4659 109.743 13.6496 109.368 13.7784C108.997 13.9072 108.603 13.9716 108.186 13.9716C107.504 13.9716 106.891 13.8087 106.345 13.483C105.804 13.1572 105.374 12.7102 105.055 12.142C104.741 11.5739 104.582 10.9242 104.578 10.1932C104.578 9.43561 104.752 8.75568 105.101 8.15341C105.453 7.54735 105.944 7.07008 106.572 6.72159C107.201 6.36932 107.936 6.19697 108.777 6.20455ZM108.783 7.90909C108.374 7.90909 108.004 8.00947 107.675 8.21023C107.349 8.4072 107.091 8.67614 106.902 9.01705C106.716 9.35417 106.624 9.73106 106.624 10.1477C106.627 10.5606 106.72 10.9356 106.902 11.2727C107.088 11.6098 107.339 11.8769 107.658 12.0739C107.98 12.2708 108.347 12.3693 108.76 12.3693C109.067 12.3693 109.353 12.3106 109.618 12.1932C109.883 12.0758 110.114 11.9129 110.311 11.7045C110.512 11.4924 110.667 11.2519 110.777 10.983C110.891 10.714 110.946 10.4299 110.942 10.1307C110.942 9.73295 110.847 9.36553 110.658 9.02841C110.472 8.69129 110.216 8.42045 109.891 8.21591C109.569 8.01136 109.199 7.90909 108.783 7.90909ZM116.402 16.6023C116.057 16.6023 115.762 16.4811 115.516 16.2386C115.269 15.9924 115.148 15.697 115.152 15.3523C115.148 15.0114 115.269 14.7197 115.516 14.4773C115.762 14.2348 116.057 14.1136 116.402 14.1136C116.735 14.1136 117.025 14.2348 117.271 14.4773C117.521 14.7197 117.648 15.0114 117.652 15.3523C117.648 15.5833 117.588 15.7936 117.47 15.983C117.357 16.1723 117.205 16.3239 117.016 16.4375C116.83 16.5473 116.625 16.6023 116.402 16.6023ZM116.402 10.8352C116.057 10.8352 115.762 10.714 115.516 10.4716C115.269 10.2254 115.148 9.92992 115.152 9.58523C115.148 9.24432 115.269 8.95265 115.516 8.71023C115.762 8.46402 116.057 8.34091 116.402 8.34091C116.735 8.34091 117.025 8.46402 117.271 8.71023C117.521 8.95265 117.648 9.24432 117.652 9.58523C117.648 9.8125 117.588 10.0208 117.47 10.2102C117.357 10.3996 117.205 10.5511 117.016 10.6648C116.83 10.7784 116.625 10.8352 116.402 10.8352ZM124.054 18.2216C123.118 18.2216 122.315 17.9848 121.645 17.5114C120.978 17.0341 120.465 16.3466 120.105 15.4489C119.749 14.5473 119.571 13.4621 119.571 12.1932C119.575 10.9242 119.755 9.8447 120.111 8.95455C120.471 8.06061 120.984 7.37879 121.651 6.90909C122.321 6.43939 123.122 6.20455 124.054 6.20455C124.986 6.20455 125.787 6.43939 126.457 6.90909C127.128 7.37879 127.641 8.06061 127.997 8.95455C128.357 9.84848 128.537 10.928 128.537 12.1932C128.537 13.4659 128.357 14.553 127.997 15.4545C127.641 16.3523 127.128 17.0379 126.457 17.5114C125.791 17.9848 124.99 18.2216 124.054 18.2216ZM124.054 16.4432C124.781 16.4432 125.355 16.0852 125.776 15.3693C126.2 14.6496 126.412 13.5909 126.412 12.1932C126.412 11.2689 126.315 10.4924 126.122 9.86364C125.929 9.23485 125.656 8.76136 125.304 8.44318C124.952 8.12121 124.535 7.96023 124.054 7.96023C123.33 7.96023 122.759 8.32008 122.338 9.03977C121.918 9.75568 121.705 10.8068 121.702 12.1932C121.698 13.1212 121.791 13.9015 121.98 14.5341C122.173 15.1667 122.446 15.6439 122.798 15.9659C123.151 16.2841 123.569 16.4432 124.054 16.4432ZM134.726 18.2216C133.79 18.2216 132.987 17.9848 132.317 17.5114C131.65 17.0341 131.137 16.3466 130.777 15.4489C130.421 14.5473 130.243 13.4621 130.243 12.1932C130.247 10.9242 130.427 9.8447 130.783 8.95455C131.143 8.06061 131.656 7.37879 132.322 6.90909C132.993 6.43939 133.794 6.20455 134.726 6.20455C135.658 6.20455 136.459 6.43939 137.129 6.90909C137.8 7.37879 138.313 8.06061 138.669 8.95455C139.029 9.84848 139.209 10.928 139.209 12.1932C139.209 13.4659 139.029 14.553 138.669 15.4545C138.313 16.3523 137.8 17.0379 137.129 17.5114C136.463 17.9848 135.661 18.2216 134.726 18.2216ZM134.726 16.4432C135.453 16.4432 136.027 16.0852 136.447 15.3693C136.872 14.6496 137.084 13.5909 137.084 12.1932C137.084 11.2689 136.987 10.4924 136.794 9.86364C136.601 9.23485 136.328 8.76136 135.976 8.44318C135.624 8.12121 135.207 7.96023 134.726 7.96023C134.002 7.96023 133.43 8.32008 133.01 9.03977C132.589 9.75568 132.377 10.8068 132.374 12.1932C132.37 13.1212 132.463 13.9015 132.652 14.5341C132.845 15.1667 133.118 15.6439 133.47 15.9659C133.822 16.2841 134.241 16.4432 134.726 16.4432ZM146.673 18H144.423L148.52 6.36364H151.122L155.224 18H152.974L149.866 8.75H149.776L146.673 18ZM146.747 13.4375H152.884V15.1307H146.747V13.4375ZM156.757 6.36364H159.337L162.791 14.7955H162.928L166.382 6.36364H168.962V18H166.939V10.0057H166.831L163.615 17.9659H162.104L158.888 9.98864H158.78V18H156.757V6.36364ZM182.078 11.3352V13.0284H174.078V11.3352H182.078ZM187.081 18V16.4773L191.121 12.517C191.507 12.1269 191.829 11.7803 192.087 11.4773C192.344 11.1742 192.537 10.8807 192.666 10.5966C192.795 10.3125 192.859 10.0095 192.859 9.6875C192.859 9.32008 192.776 9.00568 192.609 8.74432C192.443 8.47917 192.214 8.27462 191.922 8.13068C191.63 7.98674 191.299 7.91477 190.928 7.91477C190.545 7.91477 190.21 7.99432 189.922 8.15341C189.634 8.30871 189.411 8.5303 189.251 8.81818C189.096 9.10606 189.018 9.44886 189.018 9.84659H187.013C187.013 9.10795 187.181 8.46591 187.518 7.92045C187.856 7.375 188.32 6.95265 188.911 6.65341C189.505 6.35417 190.187 6.20455 190.956 6.20455C191.736 6.20455 192.422 6.35038 193.013 6.64205C193.604 6.93371 194.062 7.33333 194.388 7.84091C194.717 8.34848 194.882 8.92803 194.882 9.57955C194.882 10.0152 194.799 10.4432 194.632 10.8636C194.465 11.2841 194.172 11.75 193.751 12.2614C193.335 12.7727 192.75 13.392 191.996 14.1193L189.99 16.1591V16.2386H195.058V18H187.081ZM201.195 18.1591C200.376 18.1591 199.649 18.0189 199.013 17.7386C198.38 17.4583 197.88 17.0682 197.513 16.5682C197.145 16.0682 196.95 15.4905 196.928 14.8352H199.064C199.083 15.1496 199.187 15.4242 199.376 15.6591C199.566 15.8902 199.818 16.0701 200.132 16.1989C200.446 16.3277 200.799 16.392 201.189 16.392C201.606 16.392 201.975 16.3201 202.297 16.1761C202.619 16.0284 202.871 15.8239 203.053 15.5625C203.234 15.3011 203.323 15 203.32 14.6591C203.323 14.3068 203.232 13.9962 203.047 13.7273C202.861 13.4583 202.592 13.2481 202.24 13.0966C201.892 12.9451 201.471 12.8693 200.979 12.8693H199.95V11.2443H200.979C201.384 11.2443 201.738 11.1742 202.041 11.0341C202.348 10.8939 202.589 10.697 202.763 10.4432C202.937 10.1856 203.022 9.88826 203.018 9.55114C203.022 9.22159 202.948 8.93561 202.797 8.69318C202.649 8.44697 202.439 8.25568 202.166 8.11932C201.897 7.98295 201.581 7.91477 201.217 7.91477C200.861 7.91477 200.532 7.97917 200.229 8.10795C199.926 8.23674 199.681 8.42045 199.496 8.65909C199.31 8.89394 199.212 9.17424 199.2 9.5H197.172C197.187 8.84848 197.375 8.27652 197.734 7.78409C198.098 7.28788 198.583 6.90151 199.189 6.625C199.795 6.3447 200.475 6.20455 201.229 6.20455C202.005 6.20455 202.679 6.35038 203.251 6.64205C203.827 6.92992 204.272 7.31818 204.587 7.80682C204.901 8.29545 205.058 8.83523 205.058 9.42614C205.062 10.0814 204.869 10.6307 204.479 11.0739C204.092 11.517 203.585 11.8068 202.956 11.9432V12.0341C203.774 12.1477 204.401 12.4508 204.837 12.9432C205.276 13.4318 205.494 14.0398 205.49 14.767C205.49 15.4186 205.304 16.0019 204.933 16.517C204.566 17.0284 204.058 17.4299 203.411 17.7216C202.767 18.0133 202.028 18.1591 201.195 18.1591ZM208.73 16.6023C208.385 16.6023 208.09 16.4811 207.844 16.2386C207.598 15.9924 207.476 15.697 207.48 15.3523C207.476 15.0114 207.598 14.7197 207.844 14.4773C208.09 14.2348 208.385 14.1136 208.73 14.1136C209.063 14.1136 209.353 14.2348 209.599 14.4773C209.849 14.7197 209.976 15.0114 209.98 15.3523C209.976 15.5833 209.916 15.7936 209.798 15.983C209.685 16.1723 209.533 16.3239 209.344 16.4375C209.158 16.5473 208.954 16.6023 208.73 16.6023ZM208.73 10.8352C208.385 10.8352 208.09 10.714 207.844 10.4716C207.598 10.2254 207.476 9.92992 207.48 9.58523C207.476 9.24432 207.598 8.95265 207.844 8.71023C208.09 8.46402 208.385 8.34091 208.73 8.34091C209.063 8.34091 209.353 8.46402 209.599 8.71023C209.849 8.95265 209.976 9.24432 209.98 9.58523C209.976 9.8125 209.916 10.0208 209.798 10.2102C209.685 10.3996 209.533 10.5511 209.344 10.6648C209.158 10.7784 208.954 10.8352 208.73 10.8352ZM216.382 18.2216C215.446 18.2216 214.643 17.9848 213.973 17.5114C213.306 17.0341 212.793 16.3466 212.433 15.4489C212.077 14.5473 211.899 13.4621 211.899 12.1932C211.903 10.9242 212.083 9.8447 212.439 8.95455C212.799 8.06061 213.312 7.37879 213.979 6.90909C214.649 6.43939 215.45 6.20455 216.382 6.20455C217.314 6.20455 218.115 6.43939 218.786 6.90909C219.456 7.37879 219.969 8.06061 220.325 8.95455C220.685 9.84848 220.865 10.928 220.865 12.1932C220.865 13.4659 220.685 14.553 220.325 15.4545C219.969 16.3523 219.456 17.0379 218.786 17.5114C218.119 17.9848 217.318 18.2216 216.382 18.2216ZM216.382 16.4432C217.109 16.4432 217.683 16.0852 218.104 15.3693C218.528 14.6496 218.74 13.5909 218.74 12.1932C218.74 11.2689 218.643 10.4924 218.45 9.86364C218.257 9.23485 217.984 8.76136 217.632 8.44318C217.28 8.12121 216.863 7.96023 216.382 7.96023C215.659 7.96023 215.087 8.32008 214.666 9.03977C214.246 9.75568 214.034 10.8068 214.03 12.1932C214.026 13.1212 214.119 13.9015 214.308 14.5341C214.501 15.1667 214.774 15.6439 215.126 15.9659C215.479 16.2841 215.897 16.4432 216.382 16.4432ZM227.054 18.2216C226.118 18.2216 225.315 17.9848 224.645 17.5114C223.978 17.0341 223.465 16.3466 223.105 15.4489C222.749 14.5473 222.571 13.4621 222.571 12.1932C222.575 10.9242 222.755 9.8447 223.111 8.95455C223.471 8.06061 223.984 7.37879 224.651 6.90909C225.321 6.43939 226.122 6.20455 227.054 6.20455C227.986 6.20455 228.787 6.43939 229.457 6.90909C230.128 7.37879 230.641 8.06061 230.997 8.95455C231.357 9.84848 231.537 10.928 231.537 12.1932C231.537 13.4659 231.357 14.553 230.997 15.4545C230.641 16.3523 230.128 17.0379 229.457 17.5114C228.791 17.9848 227.99 18.2216 227.054 18.2216ZM227.054 16.4432C227.781 16.4432 228.355 16.0852 228.776 15.3693C229.2 14.6496 229.412 13.5909 229.412 12.1932C229.412 11.2689 229.315 10.4924 229.122 9.86364C228.929 9.23485 228.656 8.76136 228.304 8.44318C227.952 8.12121 227.535 7.96023 227.054 7.96023C226.33 7.96023 225.759 8.32008 225.338 9.03977C224.918 9.75568 224.705 10.8068 224.702 12.1932C224.698 13.1212 224.791 13.9015 224.98 14.5341C225.173 15.1667 225.446 15.6439 225.798 15.9659C226.151 16.2841 226.569 16.4432 227.054 16.4432ZM237.507 18V6.36364H241.871C242.765 6.36364 243.515 6.5303 244.121 6.86364C244.731 7.19697 245.191 7.6553 245.501 8.23864C245.816 8.81818 245.973 9.47727 245.973 10.2159C245.973 10.9621 245.816 11.625 245.501 12.2045C245.187 12.7841 244.723 13.2405 244.109 13.5739C243.496 13.9034 242.74 14.0682 241.842 14.0682H238.95V12.3352H241.558C242.081 12.3352 242.509 12.2443 242.842 12.0625C243.176 11.8807 243.422 11.6307 243.581 11.3125C243.744 10.9943 243.825 10.6288 243.825 10.2159C243.825 9.80303 243.744 9.43939 243.581 9.125C243.422 8.81061 243.174 8.56629 242.837 8.39205C242.503 8.21402 242.073 8.125 241.547 8.125H239.615V18H237.507ZM247.804 6.36364H250.384L253.838 14.7955H253.974L257.429 6.36364H260.009V18H257.986V10.0057H257.878L254.662 17.9659H253.151L249.935 9.98864H249.827V18H247.804V6.36364Z" fill="#E1D4C9"/>
<defs>
<clipPath id="clip0_227_2036">
<rect width="20" height="20" fill="white"/>
</clipPath>
</defs>
</svg>
